<?xml version="1.0" encoding="utf-8" standalone="no"?>
<!DOCTYPE svg PUBLIC "-//W3C//DTD SVG 1.1//EN"
  "http://www.w3.org/Graphics/SVG/1.1/DTD/svg11.dtd">
<svg xmlns:xlink="http://www.w3.org/1999/xlink" width="864pt" height="432pt" viewBox="0 0 864 432" xmlns="http://www.w3.org/2000/svg" version="1.1">
 <metadata>
  <rdf:RDF xmlns:dc="http://purl.org/dc/elements/1.1/" xmlns:cc="http://creativecommons.org/ns#" xmlns:rdf="http://www.w3.org/1999/02/22-rdf-syntax-ns#">
   <cc:Work>
    <dc:type rdf:resource="http://purl.org/dc/dcmitype/StillImage"/>
    <dc:date>2025-10-30T12:34:55.927336</dc:date>
    <dc:format>image/svg+xml</dc:format>
    <dc:creator>
     <cc:Agent>
      <dc:title>Matplotlib v3.7.1, https://matplotlib.org/</dc:title>
     </cc:Agent>
    </dc:creator>
   </cc:Work>
  </rdf:RDF>
 </metadata>
 <defs>
  <style type="text/css">*{stroke-linejoin: round; stroke-linecap: butt}</style>
 </defs>
 <g id="figure_1">
  <g id="patch_1">
   <path d="M 0 432 
L 864 432 
L 864 0 
L 0 0 
z
" style="fill: #ffffff"/>
  </g>
  <g id="axes_1">
   <g id="patch_2">
    <path d="M 108 384.48 
L 412.363636 384.48 
L 412.363636 51.84 
L 108 51.84 
z
" style="fill: #ffffff"/>
   </g>
   <g id="matplotlib.axis_1">
    <g id="xtick_1">
     <g id="line2d_1">
      <defs>
       <path id="m5cb3c64053" d="M 0 0 
L 0 3.5 
" style="stroke: #000000; stroke-width: 0.8"/>
      </defs>
      <g>
       <use xlink:href="#m5cb3c64053" x="121.834711" y="384.48" style="stroke: #000000; stroke-width: 0.8"/>
      </g>
     </g>
     <g id="text_1">
      <!-- −10 -->
      <g transform="translate(111.282367 399.078438) scale(0.1 -0.1)">
       <defs>
        <path id="DejaVuSans-2212" d="M 678 2272 
L 4684 2272 
L 4684 1741 
L 678 1741 
L 678 2272 
z
" transform="scale(0.015625)"/>
        <path id="DejaVuSans-31" d="M 794 531 
L 1825 531 
L 1825 4091 
L 703 3866 
L 703 4441 
L 1819 4666 
L 2450 4666 
L 2450 531 
L 3481 531 
L 3481 0 
L 794 0 
L 794 531 
z
" transform="scale(0.015625)"/>
        <path id="DejaVuSans-30" d="M 2034 4250 
Q 1547 4250 1301 3770 
Q 1056 3291 1056 2328 
Q 1056 1369 1301 889 
Q 1547 409 2034 409 
Q 2525 409 2770 889 
Q 3016 1369 3016 2328 
Q 3016 3291 2770 3770 
Q 2525 4250 2034 4250 
z
M 2034 4750 
Q 2819 4750 3233 4129 
Q 3647 3509 3647 2328 
Q 3647 1150 3233 529 
Q 2819 -91 2034 -91 
Q 1250 -91 836 529 
Q 422 1150 422 2328 
Q 422 3509 836 4129 
Q 1250 4750 2034 4750 
z
" transform="scale(0.015625)"/>
       </defs>
       <use xlink:href="#DejaVuSans-2212"/>
       <use xlink:href="#DejaVuSans-31" x="83.789062"/>
       <use xlink:href="#DejaVuSans-30" x="147.412109"/>
      </g>
     </g>
    </g>
    <g id="xtick_2">
     <g id="line2d_2">
      <g>
       <use xlink:href="#m5cb3c64053" x="177.173554" y="384.48" style="stroke: #000000; stroke-width: 0.8"/>
      </g>
     </g>
     <g id="text_2">
      <!-- 0 -->
      <g transform="translate(173.992304 399.078438) scale(0.1 -0.1)">
       <use xlink:href="#DejaVuSans-30"/>
      </g>
     </g>
    </g>
    <g id="xtick_3">
     <g id="line2d_3">
      <g>
       <use xlink:href="#m5cb3c64053" x="232.512397" y="384.48" style="stroke: #000000; stroke-width: 0.8"/>
      </g>
     </g>
     <g id="text_3">
      <!-- 10 -->
      <g transform="translate(226.149897 399.078438) scale(0.1 -0.1)">
       <use xlink:href="#DejaVuSans-31"/>
       <use xlink:href="#DejaVuSans-30" x="63.623047"/>
      </g>
     </g>
    </g>
    <g id="xtick_4">
     <g id="line2d_4">
      <g>
       <use xlink:href="#m5cb3c64053" x="287.85124" y="384.48" style="stroke: #000000; stroke-width: 0.8"/>
      </g>
     </g>
     <g id="text_4">
      <!-- 20 -->
      <g transform="translate(281.48874 399.078438) scale(0.1 -0.1)">
       <defs>
        <path id="DejaVuSans-32" d="M 1228 531 
L 3431 531 
L 3431 0 
L 469 0 
L 469 531 
Q 828 903 1448 1529 
Q 2069 2156 2228 2338 
Q 2531 2678 2651 2914 
Q 2772 3150 2772 3378 
Q 2772 3750 2511 3984 
Q 2250 4219 1831 4219 
Q 1534 4219 1204 4116 
Q 875 4013 500 3803 
L 500 4441 
Q 881 4594 1212 4672 
Q 1544 4750 1819 4750 
Q 2544 4750 2975 4387 
Q 3406 4025 3406 3419 
Q 3406 3131 3298 2873 
Q 3191 2616 2906 2266 
Q 2828 2175 2409 1742 
Q 1991 1309 1228 531 
z
" transform="scale(0.015625)"/>
       </defs>
       <use xlink:href="#DejaVuSans-32"/>
       <use xlink:href="#DejaVuSans-30" x="63.623047"/>
      </g>
     </g>
    </g>
    <g id="xtick_5">
     <g id="line2d_5">
      <g>
       <use xlink:href="#m5cb3c64053" x="343.190083" y="384.48" style="stroke: #000000; stroke-width: 0.8"/>
      </g>
     </g>
     <g id="text_5">
      <!-- 30 -->
      <g transform="translate(336.827583 399.078438) scale(0.1 -0.1)">
       <defs>
        <path id="DejaVuSans-33" d="M 2597 2516 
Q 3050 2419 3304 2112 
Q 3559 1806 3559 1356 
Q 3559 666 3084 287 
Q 2609 -91 1734 -91 
Q 1441 -91 1130 -33 
Q 819 25 488 141 
L 488 750 
Q 750 597 1062 519 
Q 1375 441 1716 441 
Q 2309 441 2620 675 
Q 2931 909 2931 1356 
Q 2931 1769 2642 2001 
Q 2353 2234 1838 2234 
L 1294 2234 
L 1294 2753 
L 1863 2753 
Q 2328 2753 2575 2939 
Q 2822 3125 2822 3475 
Q 2822 3834 2567 4026 
Q 2313 4219 1838 4219 
Q 1578 4219 1281 4162 
Q 984 4106 628 3988 
L 628 4550 
Q 988 4650 1302 4700 
Q 1616 4750 1894 4750 
Q 2613 4750 3031 4423 
Q 3450 4097 3450 3541 
Q 3450 3153 3228 2886 
Q 3006 2619 2597 2516 
z
" transform="scale(0.015625)"/>
       </defs>
       <use xlink:href="#DejaVuSans-33"/>
       <use xlink:href="#DejaVuSans-30" x="63.623047"/>
      </g>
     </g>
    </g>
    <g id="xtick_6">
     <g id="line2d_6">
      <g>
       <use xlink:href="#m5cb3c64053" x="398.528926" y="384.48" style="stroke: #000000; stroke-width: 0.8"/>
      </g>
     </g>
     <g id="text_6">
      <!-- 40 -->
      <g transform="translate(392.166426 399.078438) scale(0.1 -0.1)">
       <defs>
        <path id="DejaVuSans-34" d="M 2419 4116 
L 825 1625 
L 2419 1625 
L 2419 4116 
z
M 2253 4666 
L 3047 4666 
L 3047 1625 
L 3713 1625 
L 3713 1100 
L 3047 1100 
L 3047 0 
L 2419 0 
L 2419 1100 
L 313 1100 
L 313 1709 
L 2253 4666 
z
" transform="scale(0.015625)"/>
       </defs>
       <use xlink:href="#DejaVuSans-34"/>
       <use xlink:href="#DejaVuSans-30" x="63.623047"/>
      </g>
     </g>
    </g>
    <g id="text_7">
     <!-- x position (m) -->
     <g transform="translate(225.467756 412.756563) scale(0.1 -0.1)">
      <defs>
       <path id="DejaVuSans-78" d="M 3513 3500 
L 2247 1797 
L 3578 0 
L 2900 0 
L 1881 1375 
L 863 0 
L 184 0 
L 1544 1831 
L 300 3500 
L 978 3500 
L 1906 2253 
L 2834 3500 
L 3513 3500 
z
" transform="scale(0.015625)"/>
       <path id="DejaVuSans-20" transform="scale(0.015625)"/>
       <path id="DejaVuSans-70" d="M 1159 525 
L 1159 -1331 
L 581 -1331 
L 581 3500 
L 1159 3500 
L 1159 2969 
Q 1341 3281 1617 3432 
Q 1894 3584 2278 3584 
Q 2916 3584 3314 3078 
Q 3713 2572 3713 1747 
Q 3713 922 3314 415 
Q 2916 -91 2278 -91 
Q 1894 -91 1617 61 
Q 1341 213 1159 525 
z
M 3116 1747 
Q 3116 2381 2855 2742 
Q 2594 3103 2138 3103 
Q 1681 3103 1420 2742 
Q 1159 2381 1159 1747 
Q 1159 1113 1420 752 
Q 1681 391 2138 391 
Q 2594 391 2855 752 
Q 3116 1113 3116 1747 
z
" transform="scale(0.015625)"/>
       <path id="DejaVuSans-6f" d="M 1959 3097 
Q 1497 3097 1228 2736 
Q 959 2375 959 1747 
Q 959 1119 1226 758 
Q 1494 397 1959 397 
Q 2419 397 2687 759 
Q 2956 1122 2956 1747 
Q 2956 2369 2687 2733 
Q 2419 3097 1959 3097 
z
M 1959 3584 
Q 2709 3584 3137 3096 
Q 3566 2609 3566 1747 
Q 3566 888 3137 398 
Q 2709 -91 1959 -91 
Q 1206 -91 779 398 
Q 353 888 353 1747 
Q 353 2609 779 3096 
Q 1206 3584 1959 3584 
z
" transform="scale(0.015625)"/>
       <path id="DejaVuSans-73" d="M 2834 3397 
L 2834 2853 
Q 2591 2978 2328 3040 
Q 2066 3103 1784 3103 
Q 1356 3103 1142 2972 
Q 928 2841 928 2578 
Q 928 2378 1081 2264 
Q 1234 2150 1697 2047 
L 1894 2003 
Q 2506 1872 2764 1633 
Q 3022 1394 3022 966 
Q 3022 478 2636 193 
Q 2250 -91 1575 -91 
Q 1294 -91 989 -36 
Q 684 19 347 128 
L 347 722 
Q 666 556 975 473 
Q 1284 391 1588 391 
Q 1994 391 2212 530 
Q 2431 669 2431 922 
Q 2431 1156 2273 1281 
Q 2116 1406 1581 1522 
L 1381 1569 
Q 847 1681 609 1914 
Q 372 2147 372 2553 
Q 372 3047 722 3315 
Q 1072 3584 1716 3584 
Q 2034 3584 2315 3537 
Q 2597 3491 2834 3397 
z
" transform="scale(0.015625)"/>
       <path id="DejaVuSans-69" d="M 603 3500 
L 1178 3500 
L 1178 0 
L 603 0 
L 603 3500 
z
M 603 4863 
L 1178 4863 
L 1178 4134 
L 603 4134 
L 603 4863 
z
" transform="scale(0.015625)"/>
       <path id="DejaVuSans-74" d="M 1172 4494 
L 1172 3500 
L 2356 3500 
L 2356 3053 
L 1172 3053 
L 1172 1153 
Q 1172 725 1289 603 
Q 1406 481 1766 481 
L 2356 481 
L 2356 0 
L 1766 0 
Q 1100 0 847 248 
Q 594 497 594 1153 
L 594 3053 
L 172 3053 
L 172 3500 
L 594 3500 
L 594 4494 
L 1172 4494 
z
" transform="scale(0.015625)"/>
       <path id="DejaVuSans-6e" d="M 3513 2113 
L 3513 0 
L 2938 0 
L 2938 2094 
Q 2938 2591 2744 2837 
Q 2550 3084 2163 3084 
Q 1697 3084 1428 2787 
Q 1159 2491 1159 1978 
L 1159 0 
L 581 0 
L 581 3500 
L 1159 3500 
L 1159 2956 
Q 1366 3272 1645 3428 
Q 1925 3584 2291 3584 
Q 2894 3584 3203 3211 
Q 3513 2838 3513 2113 
z
" transform="scale(0.015625)"/>
       <path id="DejaVuSans-28" d="M 1984 4856 
Q 1566 4138 1362 3434 
Q 1159 2731 1159 2009 
Q 1159 1288 1364 580 
Q 1569 -128 1984 -844 
L 1484 -844 
Q 1016 -109 783 600 
Q 550 1309 550 2009 
Q 550 2706 781 3412 
Q 1013 4119 1484 4856 
L 1984 4856 
z
" transform="scale(0.015625)"/>
       <path id="DejaVuSans-6d" d="M 3328 2828 
Q 3544 3216 3844 3400 
Q 4144 3584 4550 3584 
Q 5097 3584 5394 3201 
Q 5691 2819 5691 2113 
L 5691 0 
L 5113 0 
L 5113 2094 
Q 5113 2597 4934 2840 
Q 4756 3084 4391 3084 
Q 3944 3084 3684 2787 
Q 3425 2491 3425 1978 
L 3425 0 
L 2847 0 
L 2847 2094 
Q 2847 2600 2669 2842 
Q 2491 3084 2119 3084 
Q 1678 3084 1418 2786 
Q 1159 2488 1159 1978 
L 1159 0 
L 581 0 
L 581 3500 
L 1159 3500 
L 1159 2956 
Q 1356 3278 1631 3431 
Q 1906 3584 2284 3584 
Q 2666 3584 2933 3390 
Q 3200 3197 3328 2828 
z
" transform="scale(0.015625)"/>
       <path id="DejaVuSans-29" d="M 513 4856 
L 1013 4856 
Q 1481 4119 1714 3412 
Q 1947 2706 1947 2009 
Q 1947 1309 1714 600 
Q 1481 -109 1013 -844 
L 513 -844 
Q 928 -128 1133 580 
Q 1338 1288 1338 2009 
Q 1338 2731 1133 3434 
Q 928 4138 513 4856 
z
" transform="scale(0.015625)"/>
      </defs>
      <use xlink:href="#DejaVuSans-78"/>
      <use xlink:href="#DejaVuSans-20" x="59.179688"/>
      <use xlink:href="#DejaVuSans-70" x="90.966797"/>
      <use xlink:href="#DejaVuSans-6f" x="154.443359"/>
      <use xlink:href="#DejaVuSans-73" x="215.625"/>
      <use xlink:href="#DejaVuSans-69" x="267.724609"/>
      <use xlink:href="#DejaVuSans-74" x="295.507812"/>
      <use xlink:href="#DejaVuSans-69" x="334.716797"/>
      <use xlink:href="#DejaVuSans-6f" x="362.5"/>
      <use xlink:href="#DejaVuSans-6e" x="423.681641"/>
      <use xlink:href="#DejaVuSans-20" x="487.060547"/>
      <use xlink:href="#DejaVuSans-28" x="518.847656"/>
      <use xlink:href="#DejaVuSans-6d" x="557.861328"/>
      <use xlink:href="#DejaVuSans-29" x="655.273438"/>
     </g>
    </g>
   </g>
   <g id="matplotlib.axis_2">
    <g id="ytick_1">
     <g id="line2d_7">
      <defs>
       <path id="mc3b4e14c7c" d="M 0 0 
L -3.5 0 
" style="stroke: #000000; stroke-width: 0.8"/>
      </defs>
      <g>
       <use xlink:href="#mc3b4e14c7c" x="108" y="342.206848" style="stroke: #000000; stroke-width: 0.8"/>
      </g>
     </g>
     <g id="text_8">
      <!-- 0.4 -->
      <g transform="translate(85.096875 346.006067) scale(0.1 -0.1)">
       <defs>
        <path id="DejaVuSans-2e" d="M 684 794 
L 1344 794 
L 1344 0 
L 684 0 
L 684 794 
z
" transform="scale(0.015625)"/>
       </defs>
       <use xlink:href="#DejaVuSans-30"/>
       <use xlink:href="#DejaVuSans-2e" x="63.623047"/>
       <use xlink:href="#DejaVuSans-34" x="95.410156"/>
      </g>
     </g>
    </g>
    <g id="ytick_2">
     <g id="line2d_8">
      <g>
       <use xlink:href="#mc3b4e14c7c" x="108" y="272.761447" style="stroke: #000000; stroke-width: 0.8"/>
      </g>
     </g>
     <g id="text_9">
      <!-- 0.6 -->
      <g transform="translate(85.096875 276.560666) scale(0.1 -0.1)">
       <defs>
        <path id="DejaVuSans-36" d="M 2113 2584 
Q 1688 2584 1439 2293 
Q 1191 2003 1191 1497 
Q 1191 994 1439 701 
Q 1688 409 2113 409 
Q 2538 409 2786 701 
Q 3034 994 3034 1497 
Q 3034 2003 2786 2293 
Q 2538 2584 2113 2584 
z
M 3366 4563 
L 3366 3988 
Q 3128 4100 2886 4159 
Q 2644 4219 2406 4219 
Q 1781 4219 1451 3797 
Q 1122 3375 1075 2522 
Q 1259 2794 1537 2939 
Q 1816 3084 2150 3084 
Q 2853 3084 3261 2657 
Q 3669 2231 3669 1497 
Q 3669 778 3244 343 
Q 2819 -91 2113 -91 
Q 1303 -91 875 529 
Q 447 1150 447 2328 
Q 447 3434 972 4092 
Q 1497 4750 2381 4750 
Q 2619 4750 2861 4703 
Q 3103 4656 3366 4563 
z
" transform="scale(0.015625)"/>
       </defs>
       <use xlink:href="#DejaVuSans-30"/>
       <use xlink:href="#DejaVuSans-2e" x="63.623047"/>
       <use xlink:href="#DejaVuSans-36" x="95.410156"/>
      </g>
     </g>
    </g>
    <g id="ytick_3">
     <g id="line2d_9">
      <g>
       <use xlink:href="#mc3b4e14c7c" x="108" y="203.316045" style="stroke: #000000; stroke-width: 0.8"/>
      </g>
     </g>
     <g id="text_10">
      <!-- 0.8 -->
      <g transform="translate(85.096875 207.115264) scale(0.1 -0.1)">
       <defs>
        <path id="DejaVuSans-38" d="M 2034 2216 
Q 1584 2216 1326 1975 
Q 1069 1734 1069 1313 
Q 1069 891 1326 650 
Q 1584 409 2034 409 
Q 2484 409 2743 651 
Q 3003 894 3003 1313 
Q 3003 1734 2745 1975 
Q 2488 2216 2034 2216 
z
M 1403 2484 
Q 997 2584 770 2862 
Q 544 3141 544 3541 
Q 544 4100 942 4425 
Q 1341 4750 2034 4750 
Q 2731 4750 3128 4425 
Q 3525 4100 3525 3541 
Q 3525 3141 3298 2862 
Q 3072 2584 2669 2484 
Q 3125 2378 3379 2068 
Q 3634 1759 3634 1313 
Q 3634 634 3220 271 
Q 2806 -91 2034 -91 
Q 1263 -91 848 271 
Q 434 634 434 1313 
Q 434 1759 690 2068 
Q 947 2378 1403 2484 
z
M 1172 3481 
Q 1172 3119 1398 2916 
Q 1625 2713 2034 2713 
Q 2441 2713 2670 2916 
Q 2900 3119 2900 3481 
Q 2900 3844 2670 4047 
Q 2441 4250 2034 4250 
Q 1625 4250 1398 4047 
Q 1172 3844 1172 3481 
z
" transform="scale(0.015625)"/>
       </defs>
       <use xlink:href="#DejaVuSans-30"/>
       <use xlink:href="#DejaVuSans-2e" x="63.623047"/>
       <use xlink:href="#DejaVuSans-38" x="95.410156"/>
      </g>
     </g>
    </g>
    <g id="ytick_4">
     <g id="line2d_10">
      <g>
       <use xlink:href="#mc3b4e14c7c" x="108" y="133.870644" style="stroke: #000000; stroke-width: 0.8"/>
      </g>
     </g>
     <g id="text_11">
      <!-- 1.0 -->
      <g transform="translate(85.096875 137.669863) scale(0.1 -0.1)">
       <use xlink:href="#DejaVuSans-31"/>
       <use xlink:href="#DejaVuSans-2e" x="63.623047"/>
       <use xlink:href="#DejaVuSans-30" x="95.410156"/>
      </g>
     </g>
    </g>
    <g id="ytick_5">
     <g id="line2d_11">
      <g>
       <use xlink:href="#mc3b4e14c7c" x="108" y="64.425243" style="stroke: #000000; stroke-width: 0.8"/>
      </g>
     </g>
     <g id="text_12">
      <!-- 1.2 -->
      <g transform="translate(85.096875 68.224462) scale(0.1 -0.1)">
       <use xlink:href="#DejaVuSans-31"/>
       <use xlink:href="#DejaVuSans-2e" x="63.623047"/>
       <use xlink:href="#DejaVuSans-32" x="95.410156"/>
      </g>
     </g>
    </g>
    <g id="text_13">
     <!-- normalized velocity -->
     <g transform="translate(79.017187 267.074844) rotate(-90) scale(0.1 -0.1)">
      <defs>
       <path id="DejaVuSans-72" d="M 2631 2963 
Q 2534 3019 2420 3045 
Q 2306 3072 2169 3072 
Q 1681 3072 1420 2755 
Q 1159 2438 1159 1844 
L 1159 0 
L 581 0 
L 581 3500 
L 1159 3500 
L 1159 2956 
Q 1341 3275 1631 3429 
Q 1922 3584 2338 3584 
Q 2397 3584 2469 3576 
Q 2541 3569 2628 3553 
L 2631 2963 
z
" transform="scale(0.015625)"/>
       <path id="DejaVuSans-61" d="M 2194 1759 
Q 1497 1759 1228 1600 
Q 959 1441 959 1056 
Q 959 750 1161 570 
Q 1363 391 1709 391 
Q 2188 391 2477 730 
Q 2766 1069 2766 1631 
L 2766 1759 
L 2194 1759 
z
M 3341 1997 
L 3341 0 
L 2766 0 
L 2766 531 
Q 2569 213 2275 61 
Q 1981 -91 1556 -91 
Q 1019 -91 701 211 
Q 384 513 384 1019 
Q 384 1609 779 1909 
Q 1175 2209 1959 2209 
L 2766 2209 
L 2766 2266 
Q 2766 2663 2505 2880 
Q 2244 3097 1772 3097 
Q 1472 3097 1187 3025 
Q 903 2953 641 2809 
L 641 3341 
Q 956 3463 1253 3523 
Q 1550 3584 1831 3584 
Q 2591 3584 2966 3190 
Q 3341 2797 3341 1997 
z
" transform="scale(0.015625)"/>
       <path id="DejaVuSans-6c" d="M 603 4863 
L 1178 4863 
L 1178 0 
L 603 0 
L 603 4863 
z
" transform="scale(0.015625)"/>
       <path id="DejaVuSans-7a" d="M 353 3500 
L 3084 3500 
L 3084 2975 
L 922 459 
L 3084 459 
L 3084 0 
L 275 0 
L 275 525 
L 2438 3041 
L 353 3041 
L 353 3500 
z
" transform="scale(0.015625)"/>
       <path id="DejaVuSans-65" d="M 3597 1894 
L 3597 1613 
L 953 1613 
Q 991 1019 1311 708 
Q 1631 397 2203 397 
Q 2534 397 2845 478 
Q 3156 559 3463 722 
L 3463 178 
Q 3153 47 2828 -22 
Q 2503 -91 2169 -91 
Q 1331 -91 842 396 
Q 353 884 353 1716 
Q 353 2575 817 3079 
Q 1281 3584 2069 3584 
Q 2775 3584 3186 3129 
Q 3597 2675 3597 1894 
z
M 3022 2063 
Q 3016 2534 2758 2815 
Q 2500 3097 2075 3097 
Q 1594 3097 1305 2825 
Q 1016 2553 972 2059 
L 3022 2063 
z
" transform="scale(0.015625)"/>
       <path id="DejaVuSans-64" d="M 2906 2969 
L 2906 4863 
L 3481 4863 
L 3481 0 
L 2906 0 
L 2906 525 
Q 2725 213 2448 61 
Q 2172 -91 1784 -91 
Q 1150 -91 751 415 
Q 353 922 353 1747 
Q 353 2572 751 3078 
Q 1150 3584 1784 3584 
Q 2172 3584 2448 3432 
Q 2725 3281 2906 2969 
z
M 947 1747 
Q 947 1113 1208 752 
Q 1469 391 1925 391 
Q 2381 391 2643 752 
Q 2906 1113 2906 1747 
Q 2906 2381 2643 2742 
Q 2381 3103 1925 3103 
Q 1469 3103 1208 2742 
Q 947 2381 947 1747 
z
" transform="scale(0.015625)"/>
       <path id="DejaVuSans-76" d="M 191 3500 
L 800 3500 
L 1894 563 
L 2988 3500 
L 3597 3500 
L 2284 0 
L 1503 0 
L 191 3500 
z
" transform="scale(0.015625)"/>
       <path id="DejaVuSans-63" d="M 3122 3366 
L 3122 2828 
Q 2878 2963 2633 3030 
Q 2388 3097 2138 3097 
Q 1578 3097 1268 2742 
Q 959 2388 959 1747 
Q 959 1106 1268 751 
Q 1578 397 2138 397 
Q 2388 397 2633 464 
Q 2878 531 3122 666 
L 3122 134 
Q 2881 22 2623 -34 
Q 2366 -91 2075 -91 
Q 1284 -91 818 406 
Q 353 903 353 1747 
Q 353 2603 823 3093 
Q 1294 3584 2113 3584 
Q 2378 3584 2631 3529 
Q 2884 3475 3122 3366 
z
" transform="scale(0.015625)"/>
       <path id="DejaVuSans-79" d="M 2059 -325 
Q 1816 -950 1584 -1140 
Q 1353 -1331 966 -1331 
L 506 -1331 
L 506 -850 
L 844 -850 
Q 1081 -850 1212 -737 
Q 1344 -625 1503 -206 
L 1606 56 
L 191 3500 
L 800 3500 
L 1894 763 
L 2988 3500 
L 3597 3500 
L 2059 -325 
z
" transform="scale(0.015625)"/>
      </defs>
      <use xlink:href="#DejaVuSans-6e"/>
      <use xlink:href="#DejaVuSans-6f" x="63.378906"/>
      <use xlink:href="#DejaVuSans-72" x="124.560547"/>
      <use xlink:href="#DejaVuSans-6d" x="163.923828"/>
      <use xlink:href="#DejaVuSans-61" x="261.335938"/>
      <use xlink:href="#DejaVuSans-6c" x="322.615234"/>
      <use xlink:href="#DejaVuSans-69" x="350.398438"/>
      <use xlink:href="#DejaVuSans-7a" x="378.181641"/>
      <use xlink:href="#DejaVuSans-65" x="430.671875"/>
      <use xlink:href="#DejaVuSans-64" x="492.195312"/>
      <use xlink:href="#DejaVuSans-20" x="555.671875"/>
      <use xlink:href="#DejaVuSans-76" x="587.458984"/>
      <use xlink:href="#DejaVuSans-65" x="646.638672"/>
      <use xlink:href="#DejaVuSans-6c" x="708.162109"/>
      <use xlink:href="#DejaVuSans-6f" x="735.945312"/>
      <use xlink:href="#DejaVuSans-63" x="797.126953"/>
      <use xlink:href="#DejaVuSans-69" x="852.107422"/>
      <use xlink:href="#DejaVuSans-74" x="879.890625"/>
      <use xlink:href="#DejaVuSans-79" x="919.099609"/>
     </g>
    </g>
   </g>
   <g id="line2d_12">
    <defs>
     <path id="m1a8cb6c368" d="M 0 3 
C 0.795609 3 1.55874 2.683901 2.12132 2.12132 
C 2.683901 1.55874 3 0.795609 3 0 
C 3 -0.795609 2.683901 -1.55874 2.12132 -2.12132 
C 1.55874 -2.683901 0.795609 -3 0 -3 
C -0.795609 -3 -1.55874 -2.683901 -2.12132 -2.12132 
C -2.683901 -1.55874 -3 -0.795609 -3 0 
C -3 0.795609 -2.683901 1.55874 -2.12132 2.12132 
C -1.55874 2.683901 -0.795609 3 0 3 
z
" style="stroke: #d62728"/>
    </defs>
    <g clip-path="url(#pdfcc0179c0)">
     <use xlink:href="#m1a8cb6c368" x="153.287649" y="103.453558" style="fill: #d62728; stroke: #d62728"/>
     <use xlink:href="#m1a8cb6c368" x="170.353595" y="103.34939" style="fill: #d62728; stroke: #d62728"/>
     <use xlink:href="#m1a8cb6c368" x="181.092872" y="66.994723" style="fill: #d62728; stroke: #d62728"/>
     <use xlink:href="#m1a8cb6c368" x="185.861199" y="66.96" style="fill: #d62728; stroke: #d62728"/>
     <use xlink:href="#m1a8cb6c368" x="199.923905" y="72.932305" style="fill: #d62728; stroke: #d62728"/>
     <use xlink:href="#m1a8cb6c368" x="222.813158" y="107.898064" style="fill: #d62728; stroke: #d62728"/>
     <use xlink:href="#m1a8cb6c368" x="246.67914" y="123.523279" style="fill: #d62728; stroke: #d62728"/>
     <use xlink:href="#m1a8cb6c368" x="269.500879" y="114.91205" style="fill: #d62728; stroke: #d62728"/>
     <use xlink:href="#m1a8cb6c368" x="359.852608" y="115.641226" style="fill: #d62728; stroke: #d62728"/>
    </g>
   </g>
   <g id="line2d_13">
    <defs>
     <path id="me65df030a6" d="M 0 4.242641 
L 4.242641 0 
L 0 -4.242641 
L -4.242641 0 
z
" style="stroke: #1f77b4; stroke-linejoin: miter"/>
    </defs>
    <g clip-path="url(#pdfcc0179c0)">
     <use xlink:href="#me65df030a6" x="153.691069" y="208.705009" style="fill: #1f77b4; stroke: #1f77b4; stroke-linejoin: miter"/>
     <use xlink:href="#me65df030a6" x="171.065252" y="248.535419" style="fill: #1f77b4; stroke: #1f77b4; stroke-linejoin: miter"/>
     <use xlink:href="#me65df030a6" x="179.054521" y="339.217224" style="fill: #1f77b4; stroke: #1f77b4; stroke-linejoin: miter"/>
     <use xlink:href="#me65df030a6" x="186.723378" y="316.199545" style="fill: #1f77b4; stroke: #1f77b4; stroke-linejoin: miter"/>
     <use xlink:href="#me65df030a6" x="200.101543" y="369.36" style="fill: #1f77b4; stroke: #1f77b4; stroke-linejoin: miter"/>
     <use xlink:href="#me65df030a6" x="223.600076" y="305.109115" style="fill: #1f77b4; stroke: #1f77b4; stroke-linejoin: miter"/>
     <use xlink:href="#me65df030a6" x="246.413514" y="289.258202" style="fill: #1f77b4; stroke: #1f77b4; stroke-linejoin: miter"/>
     <use xlink:href="#me65df030a6" x="270.44164" y="243.149928" style="fill: #1f77b4; stroke: #1f77b4; stroke-linejoin: miter"/>
     <use xlink:href="#me65df030a6" x="361.485104" y="201.51741" style="fill: #1f77b4; stroke: #1f77b4; stroke-linejoin: miter"/>
    </g>
   </g>
   <g id="line2d_14">
    <path d="M 121.834711 135.828199 
L 124.140496 135.850845 
L 126.446281 135.888587 
L 128.752066 135.948974 
L 131.057851 136.034523 
L 133.363636 136.150265 
L 135.669421 136.306265 
L 137.975207 136.510073 
L 140.280992 136.776783 
L 142.586777 137.118978 
L 144.892562 137.561818 
L 147.198347 138.130465 
L 149.504132 138.865178 
L 151.809917 139.823826 
L 154.115702 141.066798 
L 156.421488 142.719901 
L 158.727273 144.888811 
L 161.033058 147.845273 
L 163.338843 151.765416 
L 165.644628 157.35879 
L 167.950413 164.695847 
L 170.256198 175.930402 
L 172.561983 189.809418 
L 174.867769 217.539772 
L 177.173554 246.030251 
L 177.173554 246.030251 
L 179.479339 269.153557 
L 181.785124 290.786806 
L 184.090909 302.352736 
L 186.396694 312.09346 
L 188.702479 319.380698 
L 191.008264 325.23097 
L 193.31405 329.947973 
L 195.619835 333.863839 
L 197.92562 337.142114 
L 200.231405 339.928485 
L 202.53719 342.314036 
L 204.842975 344.367204 
L 207.14876 346.132275 
L 209.454545 347.641454 
L 211.760331 348.913865 
L 214.066116 349.954288 
L 216.371901 350.758194 
L 218.677686 351.313002 
L 220.983471 351.600848 
L 223.289256 351.601855 
L 225.595041 351.348983 
L 227.900826 350.885259 
L 230.206612 350.217224 
L 232.512397 349.352679 
L 234.818182 348.296153 
L 237.123967 347.054439 
L 239.429752 345.636595 
L 241.735537 344.057216 
L 244.041322 342.333913 
L 246.347107 340.486061 
L 248.652893 338.533539 
L 250.958678 336.496725 
L 253.264463 334.397763 
L 255.570248 332.253259 
L 257.876033 330.056922 
L 260.181818 327.775792 
L 262.487603 325.386216 
L 264.793388 322.902788 
L 267.099174 320.366269 
L 269.404959 317.821448 
L 271.710744 315.29751 
L 274.016529 312.802759 
L 276.322314 310.342228 
L 278.628099 307.921955 
L 280.933884 305.54647 
L 283.239669 303.217533 
L 285.545455 300.936654 
L 287.85124 298.705091 
L 290.157025 296.522593 
L 292.46281 294.388909 
L 294.768595 292.303282 
L 297.07438 290.264959 
L 299.380165 288.272178 
L 301.68595 286.324184 
L 303.991736 284.418964 
L 306.297521 282.555513 
L 308.603306 280.732319 
L 310.909091 278.947623 
L 313.214876 277.199914 
L 315.520661 275.488185 
L 317.826446 273.811179 
L 320.132231 272.168393 
L 322.438017 270.558317 
L 324.743802 268.980195 
L 327.049587 267.433022 
L 329.355372 265.915539 
L 331.661157 264.427244 
L 333.966942 262.967381 
L 336.272727 261.534943 
L 338.578512 260.128674 
L 340.884298 258.747314 
L 343.190083 257.39011 
L 345.495868 256.055802 
L 347.801653 254.743636 
L 350.107438 253.452354 
L 352.413223 252.181453 
L 354.719008 250.930429 
L 357.024793 249.698277 
L 359.330579 248.48424 
L 361.636364 247.28832 
L 363.942149 246.10951 
L 366.247934 244.947305 
L 368.553719 243.801456 
L 370.859504 242.671711 
L 373.165289 241.557565 
L 375.471074 240.458767 
L 377.77686 239.375318 
L 380.082645 238.306966 
L 382.38843 237.253208 
L 384.694215 236.214043 
L 387 235.18922 
L 389.305785 234.178739 
L 391.61157 233.182349 
L 393.917355 232.199545 
L 396.22314 231.230329 
L 398.528926 230.274448 
" clip-path="url(#pdfcc0179c0)" style="fill: none; stroke-dasharray: 1.5,2.475; stroke-dashoffset: 0; stroke: #1f77b4; stroke-width: 1.5"/>
   </g>
   <g id="line2d_15">
    <path d="M 121.834711 99.236008 
L 124.140496 99.278783 
L 126.446281 99.331622 
L 128.752066 99.397041 
L 131.057851 99.48259 
L 133.363636 99.588268 
L 135.669421 99.719107 
L 137.975207 99.88014 
L 140.280992 100.078914 
L 142.586777 100.32298 
L 144.892562 100.624916 
L 147.198347 100.997305 
L 149.504132 101.452726 
L 151.809917 102.011308 
L 154.115702 102.695698 
L 156.421488 103.526023 
L 158.727273 104.527446 
L 161.033058 105.710031 
L 163.338843 107.073777 
L 165.644628 108.515524 
L 167.950413 109.831464 
L 170.256198 110.327143 
L 172.561983 109.114365 
L 174.867769 104.756415 
L 177.173554 96.838129 
L 177.173554 96.838129 
L 179.479339 88.970166 
L 181.785124 84.25744 
L 184.090909 82.390466 
L 186.396694 82.219369 
L 188.702479 82.825758 
L 191.008264 83.749181 
L 193.31405 84.773249 
L 195.619835 85.832543 
L 197.92562 86.88932 
L 200.231405 87.928485 
L 202.53719 88.952553 
L 204.842975 89.971589 
L 207.14876 90.990625 
L 209.454545 92.014693 
L 211.760331 93.043793 
L 214.066116 94.082958 
L 216.371901 95.127155 
L 218.677686 96.176385 
L 220.983471 97.22813 
L 223.289256 98.27736 
L 225.595041 99.324073 
L 227.900826 100.363238 
L 230.206612 101.38479 
L 232.512397 102.391245 
L 234.818182 103.375055 
L 237.123967 104.33622 
L 239.429752 105.274739 
L 241.735537 106.190613 
L 244.041322 107.083842 
L 246.347107 107.949393 
L 248.652893 108.787267 
L 250.958678 109.597463 
L 253.264463 110.379982 
L 255.570248 111.139856 
L 257.876033 111.874568 
L 260.181818 112.586635 
L 262.487603 113.276057 
L 264.793388 113.947866 
L 267.099174 114.599545 
L 269.404959 115.233612 
L 271.710744 115.850066 
L 274.016529 116.453939 
L 276.322314 117.040199 
L 278.628099 117.616394 
L 280.933884 118.177493 
L 283.239669 118.728527 
L 285.545455 119.269497 
L 287.85124 119.800402 
L 290.157025 120.318726 
L 292.46281 120.829502 
L 294.768595 121.330214 
L 297.07438 121.820861 
L 299.380165 122.303959 
L 301.68595 122.776993 
L 303.991736 123.239962 
L 306.297521 123.692867 
L 308.603306 124.135707 
L 310.909091 124.570999 
L 313.214876 124.99371 
L 315.520661 125.406357 
L 317.826446 125.811455 
L 320.132231 126.203973 
L 322.438017 126.586425 
L 324.743802 126.958814 
L 327.049587 127.323654 
L 329.355372 127.680945 
L 331.661157 128.025656 
L 333.966942 128.362819 
L 336.272727 128.692433 
L 338.578512 129.009466 
L 340.884298 129.318951 
L 343.190083 129.615855 
L 345.495868 129.905211 
L 347.801653 130.184502 
L 350.107438 130.453729 
L 352.413223 130.710375 
L 354.719008 130.959473 
L 357.024793 131.19599 
L 359.330579 131.422442 
L 361.636364 131.63883 
L 363.942149 131.842637 
L 366.247934 132.03638 
L 368.553719 132.220058 
L 370.859504 132.393671 
L 373.165289 132.554704 
L 375.471074 132.708189 
L 377.77686 132.846576 
L 380.082645 132.977415 
L 382.38843 133.09819 
L 384.694215 133.206384 
L 387 133.307029 
L 389.305785 133.400126 
L 391.61157 133.480643 
L 393.917355 133.553611 
L 396.22314 133.616514 
L 398.528926 133.669353 
L 398.528926 133.669353 
" clip-path="url(#pdfcc0179c0)" style="fill: none; stroke-dasharray: 1.5,2.475; stroke-dashoffset: 0; stroke: #d62728; stroke-width: 1.5"/>
   </g>
   <g id="line2d_16">
    <path d="M 121.834711 135.954006 
L 124.140496 136.004329 
L 126.446281 136.077297 
L 128.752066 136.175426 
L 131.057851 136.308782 
L 133.363636 136.482395 
L 135.669421 136.703815 
L 137.975207 136.990655 
L 140.280992 137.352979 
L 142.586777 137.813432 
L 144.892562 138.39466 
L 147.198347 139.131888 
L 149.504132 140.060343 
L 151.809917 141.245444 
L 154.115702 142.747578 
L 156.421488 144.682488 
L 158.727273 147.150819 
L 161.033058 150.389088 
L 163.338843 154.538199 
L 165.644628 160.207058 
L 167.950413 167.420825 
L 170.256198 178.096797 
L 172.561983 191.120326 
L 174.867769 217.237836 
L 177.173554 243.958715 
L 177.173554 243.958715 
L 179.479339 265.022059 
L 181.785124 284.553075 
L 184.090909 294.925098 
L 186.396694 303.791715 
L 188.702479 310.628565 
L 191.008264 316.25792 
L 193.31405 320.916297 
L 195.619835 324.852795 
L 197.92562 328.196993 
L 200.231405 331.067152 
L 202.53719 333.544038 
L 204.842975 335.692819 
L 207.14876 337.560297 
L 209.454545 339.181444 
L 211.760331 340.580417 
L 214.066116 341.773318 
L 216.371901 342.767444 
L 218.677686 343.561033 
L 220.983471 344.14679 
L 223.289256 344.513643 
L 225.595041 344.645992 
L 227.900826 344.561953 
L 230.206612 344.295242 
L 232.512397 343.856931 
L 234.818182 343.255323 
L 237.123967 342.495449 
L 239.429752 341.582846 
L 241.735537 340.5233 
L 244.041322 339.326625 
L 246.347107 338.004898 
L 248.652893 336.573216 
L 250.958678 335.047933 
L 253.264463 333.444398 
L 255.570248 331.776451 
L 257.876033 330.057677 
L 260.181818 328.304684 
L 262.487603 326.525271 
L 264.793388 324.704594 
L 267.099174 322.807175 
L 269.404959 320.809361 
L 271.710744 318.733044 
L 274.016529 316.619237 
L 276.322314 314.496372 
L 278.628099 312.386339 
L 280.933884 310.296938 
L 283.239669 308.230182 
L 285.545455 306.191104 
L 287.85124 304.183226 
L 290.157025 302.208561 
L 292.46281 300.269374 
L 294.768595 298.366419 
L 297.07438 296.5002 
L 299.380165 294.671219 
L 301.68595 292.878723 
L 303.991736 291.12271 
L 306.297521 289.402427 
L 308.603306 287.716866 
L 310.909091 286.065022 
L 313.214876 284.44639 
L 315.520661 282.859714 
L 317.826446 281.303483 
L 320.132231 279.777445 
L 322.438017 278.280847 
L 324.743802 276.812932 
L 327.049587 275.372946 
L 329.355372 273.960135 
L 331.661157 272.573995 
L 333.966942 271.214777 
L 336.272727 269.880972 
L 338.578512 268.572329 
L 340.884298 267.287841 
L 343.190083 266.026753 
L 345.495868 264.788561 
L 347.801653 263.572512 
L 350.107438 262.377346 
L 352.413223 261.202562 
L 354.719008 260.046648 
L 357.024793 258.908599 
L 359.330579 257.787408 
L 361.636364 256.682823 
L 363.942149 255.593336 
L 366.247934 254.518693 
L 368.553719 253.458393 
L 370.859504 252.411931 
L 373.165289 251.378554 
L 375.471074 250.35826 
L 377.77686 249.350295 
L 380.082645 248.354408 
L 380.082645 248.354408 
L 382.38843 247.370598 
L 384.694215 246.398865 
L 387 245.438959 
L 389.305785 244.490375 
L 391.61157 243.552862 
L 393.917355 242.626672 
L 396.22314 241.711049 
L 398.528926 240.806498 
" clip-path="url(#pdfcc0179c0)" style="fill: none; stroke: #1f77b4; stroke-width: 1.5; stroke-linecap: square"/>
   </g>
   <g id="line2d_17">
    <path d="M 121.834711 99.346718 
L 124.140496 99.407106 
L 126.446281 99.48259 
L 128.752066 99.575687 
L 131.057851 99.691429 
L 133.363636 99.834849 
L 135.669421 100.010979 
L 137.975207 100.22485 
L 140.280992 100.486529 
L 142.586777 100.803562 
L 144.892562 101.191047 
L 147.198347 101.659049 
L 149.504132 102.22518 
L 151.809917 102.904537 
L 154.115702 103.722282 
L 156.421488 104.685963 
L 158.727273 105.813192 
L 161.033058 107.088874 
L 163.338843 108.487847 
L 165.644628 109.861658 
L 167.950413 110.966242 
L 170.256198 111.056823 
L 172.561983 109.212494 
L 174.867769 103.996541 
L 177.173554 95.023994 
L 177.173554 95.023994 
L 179.479339 86.084156 
L 181.785124 80.415298 
L 184.090909 77.808579 
L 186.396694 77.182061 
L 188.702479 77.556966 
L 191.008264 78.392323 
L 193.31405 79.418908 
L 195.619835 80.538589 
L 197.92562 81.688464 
L 200.231405 82.848403 
L 202.53719 84.008343 
L 204.842975 85.173315 
L 207.14876 86.348351 
L 209.454545 87.530936 
L 211.760331 88.726101 
L 214.066116 89.933847 
L 216.371901 91.146626 
L 218.677686 92.366952 
L 220.983471 93.587279 
L 223.289256 94.80509 
L 225.595041 96.017868 
L 227.900826 97.21555 
L 230.206612 98.395618 
L 232.512397 99.558074 
L 234.818182 100.692852 
L 237.123967 101.804985 
L 239.429752 102.891956 
L 241.735537 103.95125 
L 244.041322 104.980351 
L 246.347107 105.979257 
L 248.652893 106.94797 
L 250.958678 107.883974 
L 253.264463 108.794816 
L 255.570248 109.675464 
L 257.876033 110.533467 
L 260.181818 111.363792 
L 262.487603 112.171472 
L 264.793388 112.956507 
L 267.099174 113.718897 
L 269.404959 114.463674 
L 271.710744 115.185805 
L 274.016529 115.89284 
L 276.322314 116.582262 
L 278.628099 117.256587 
L 280.933884 117.915815 
L 283.239669 118.562462 
L 285.545455 119.194013 
L 287.85124 119.815499 
L 290.157025 120.42692 
L 292.46281 121.025761 
L 294.768595 121.612021 
L 297.07438 122.190733 
L 299.380165 122.75938 
L 301.68595 123.317963 
L 303.991736 123.868997 
L 306.297521 124.40745 
L 308.603306 124.940871 
L 310.909091 125.466744 
L 313.214876 125.985069 
L 315.520661 126.498361 
L 317.826446 127.004104 
L 320.132231 127.5023 
L 322.438017 127.992946 
L 324.743802 128.476045 
L 327.049587 128.951595 
L 329.355372 129.419597 
L 331.661157 129.877534 
L 333.966942 130.327922 
L 336.272727 130.768246 
L 338.578512 131.201022 
L 340.884298 131.626249 
L 343.190083 132.041412 
L 345.495868 132.44651 
L 347.801653 132.84406 
L 350.107438 133.229029 
L 352.413223 133.608966 
L 354.719008 133.976322 
L 357.024793 134.33613 
L 359.330579 134.683357 
L 361.636364 135.023035 
L 363.942149 135.352649 
L 366.247934 135.672199 
L 368.553719 135.981684 
L 370.859504 136.281104 
L 373.165289 136.572976 
L 375.471074 136.852267 
L 377.77686 137.121494 
L 380.082645 137.380656 
L 382.38843 137.63227 
L 384.694215 137.871303 
L 387 138.100272 
L 389.305785 138.319176 
L 391.61157 138.530531 
L 393.917355 138.729306 
L 396.22314 138.918016 
L 398.528926 139.099178 
" clip-path="url(#pdfcc0179c0)" style="fill: none; stroke: #d62728; stroke-width: 1.5; stroke-linecap: square"/>
   </g>
   <g id="patch_3">
    <path d="M 108 384.48 
L 108 51.84 
" style="fill: none; stroke: #000000; stroke-width: 0.8; stroke-linejoin: miter; stroke-linecap: square"/>
   </g>
   <g id="patch_4">
    <path d="M 412.363636 384.48 
L 412.363636 51.84 
" style="fill: none; stroke: #000000; stroke-width: 0.8; stroke-linejoin: miter; stroke-linecap: square"/>
   </g>
   <g id="patch_5">
    <path d="M 108 384.48 
L 412.363636 384.48 
" style="fill: none; stroke: #000000; stroke-width: 0.8; stroke-linejoin: miter; stroke-linecap: square"/>
   </g>
   <g id="patch_6">
    <path d="M 108 51.84 
L 412.363636 51.84 
" style="fill: none; stroke: #000000; stroke-width: 0.8; stroke-linejoin: miter; stroke-linecap: square"/>
   </g>
   <g id="legend_1">
    <g id="patch_7">
     <path d="M 186.833381 249.01625 
L 333.530256 249.01625 
Q 335.530256 249.01625 335.530256 247.01625 
L 335.530256 189.30375 
Q 335.530256 187.30375 333.530256 187.30375 
L 186.833381 187.30375 
Q 184.833381 187.30375 184.833381 189.30375 
L 184.833381 247.01625 
Q 184.833381 249.01625 186.833381 249.01625 
z
" style="fill: #ffffff; opacity: 0.8; stroke: #cccccc; stroke-linejoin: miter"/>
    </g>
    <g id="line2d_18">
     <path d="M 188.833381 195.402188 
L 198.833381 195.402188 
L 208.833381 195.402188 
" style="fill: none; stroke-dasharray: 1.5,2.475; stroke-dashoffset: 0; stroke: #1f77b4; stroke-width: 1.5"/>
    </g>
    <g id="text_14">
     <!-- 5m width, z/h = 0.38 -->
     <g transform="translate(216.833381 198.902188) scale(0.1 -0.1)">
      <defs>
       <path id="DejaVuSans-35" d="M 691 4666 
L 3169 4666 
L 3169 4134 
L 1269 4134 
L 1269 2991 
Q 1406 3038 1543 3061 
Q 1681 3084 1819 3084 
Q 2600 3084 3056 2656 
Q 3513 2228 3513 1497 
Q 3513 744 3044 326 
Q 2575 -91 1722 -91 
Q 1428 -91 1123 -41 
Q 819 9 494 109 
L 494 744 
Q 775 591 1075 516 
Q 1375 441 1709 441 
Q 2250 441 2565 725 
Q 2881 1009 2881 1497 
Q 2881 1984 2565 2268 
Q 2250 2553 1709 2553 
Q 1456 2553 1204 2497 
Q 953 2441 691 2322 
L 691 4666 
z
" transform="scale(0.015625)"/>
       <path id="DejaVuSans-77" d="M 269 3500 
L 844 3500 
L 1563 769 
L 2278 3500 
L 2956 3500 
L 3675 769 
L 4391 3500 
L 4966 3500 
L 4050 0 
L 3372 0 
L 2619 2869 
L 1863 0 
L 1184 0 
L 269 3500 
z
" transform="scale(0.015625)"/>
       <path id="DejaVuSans-68" d="M 3513 2113 
L 3513 0 
L 2938 0 
L 2938 2094 
Q 2938 2591 2744 2837 
Q 2550 3084 2163 3084 
Q 1697 3084 1428 2787 
Q 1159 2491 1159 1978 
L 1159 0 
L 581 0 
L 581 4863 
L 1159 4863 
L 1159 2956 
Q 1366 3272 1645 3428 
Q 1925 3584 2291 3584 
Q 2894 3584 3203 3211 
Q 3513 2838 3513 2113 
z
" transform="scale(0.015625)"/>
       <path id="DejaVuSans-2c" d="M 750 794 
L 1409 794 
L 1409 256 
L 897 -744 
L 494 -744 
L 750 256 
L 750 794 
z
" transform="scale(0.015625)"/>
       <path id="DejaVuSans-2f" d="M 1625 4666 
L 2156 4666 
L 531 -594 
L 0 -594 
L 1625 4666 
z
" transform="scale(0.015625)"/>
       <path id="DejaVuSans-3d" d="M 678 2906 
L 4684 2906 
L 4684 2381 
L 678 2381 
L 678 2906 
z
M 678 1631 
L 4684 1631 
L 4684 1100 
L 678 1100 
L 678 1631 
z
" transform="scale(0.015625)"/>
      </defs>
      <use xlink:href="#DejaVuSans-35"/>
      <use xlink:href="#DejaVuSans-6d" x="63.623047"/>
      <use xlink:href="#DejaVuSans-20" x="161.035156"/>
      <use xlink:href="#DejaVuSans-77" x="192.822266"/>
      <use xlink:href="#DejaVuSans-69" x="274.609375"/>
      <use xlink:href="#DejaVuSans-64" x="302.392578"/>
      <use xlink:href="#DejaVuSans-74" x="365.869141"/>
      <use xlink:href="#DejaVuSans-68" x="405.078125"/>
      <use xlink:href="#DejaVuSans-2c" x="468.457031"/>
      <use xlink:href="#DejaVuSans-20" x="500.244141"/>
      <use xlink:href="#DejaVuSans-7a" x="532.03125"/>
      <use xlink:href="#DejaVuSans-2f" x="584.521484"/>
      <use xlink:href="#DejaVuSans-68" x="618.212891"/>
      <use xlink:href="#DejaVuSans-20" x="681.591797"/>
      <use xlink:href="#DejaVuSans-3d" x="713.378906"/>
      <use xlink:href="#DejaVuSans-20" x="797.167969"/>
      <use xlink:href="#DejaVuSans-30" x="828.955078"/>
      <use xlink:href="#DejaVuSans-2e" x="892.578125"/>
      <use xlink:href="#DejaVuSans-33" x="924.365234"/>
      <use xlink:href="#DejaVuSans-38" x="987.988281"/>
     </g>
    </g>
    <g id="line2d_19">
     <path d="M 188.833381 210.080313 
L 198.833381 210.080313 
L 208.833381 210.080313 
" style="fill: none; stroke-dasharray: 1.5,2.475; stroke-dashoffset: 0; stroke: #d62728; stroke-width: 1.5"/>
    </g>
    <g id="text_15">
     <!-- 5m width, z/h = 1.88 -->
     <g transform="translate(216.833381 213.580313) scale(0.1 -0.1)">
      <use xlink:href="#DejaVuSans-35"/>
      <use xlink:href="#DejaVuSans-6d" x="63.623047"/>
      <use xlink:href="#DejaVuSans-20" x="161.035156"/>
      <use xlink:href="#DejaVuSans-77" x="192.822266"/>
      <use xlink:href="#DejaVuSans-69" x="274.609375"/>
      <use xlink:href="#DejaVuSans-64" x="302.392578"/>
      <use xlink:href="#DejaVuSans-74" x="365.869141"/>
      <use xlink:href="#DejaVuSans-68" x="405.078125"/>
      <use xlink:href="#DejaVuSans-2c" x="468.457031"/>
      <use xlink:href="#DejaVuSans-20" x="500.244141"/>
      <use xlink:href="#DejaVuSans-7a" x="532.03125"/>
      <use xlink:href="#DejaVuSans-2f" x="584.521484"/>
      <use xlink:href="#DejaVuSans-68" x="618.212891"/>
      <use xlink:href="#DejaVuSans-20" x="681.591797"/>
      <use xlink:href="#DejaVuSans-3d" x="713.378906"/>
      <use xlink:href="#DejaVuSans-20" x="797.167969"/>
      <use xlink:href="#DejaVuSans-31" x="828.955078"/>
      <use xlink:href="#DejaVuSans-2e" x="892.578125"/>
      <use xlink:href="#DejaVuSans-38" x="924.365234"/>
      <use xlink:href="#DejaVuSans-38" x="987.988281"/>
     </g>
    </g>
    <g id="line2d_20">
     <path d="M 188.833381 224.758438 
L 198.833381 224.758438 
L 208.833381 224.758438 
" style="fill: none; stroke: #1f77b4; stroke-width: 1.5; stroke-linecap: square"/>
    </g>
    <g id="text_16">
     <!-- 7.6m width, z/h = 0.38 -->
     <g transform="translate(216.833381 228.258438) scale(0.1 -0.1)">
      <defs>
       <path id="DejaVuSans-37" d="M 525 4666 
L 3525 4666 
L 3525 4397 
L 1831 0 
L 1172 0 
L 2766 4134 
L 525 4134 
L 525 4666 
z
" transform="scale(0.015625)"/>
      </defs>
      <use xlink:href="#DejaVuSans-37"/>
      <use xlink:href="#DejaVuSans-2e" x="63.623047"/>
      <use xlink:href="#DejaVuSans-36" x="95.410156"/>
      <use xlink:href="#DejaVuSans-6d" x="159.033203"/>
      <use xlink:href="#DejaVuSans-20" x="256.445312"/>
      <use xlink:href="#DejaVuSans-77" x="288.232422"/>
      <use xlink:href="#DejaVuSans-69" x="370.019531"/>
      <use xlink:href="#DejaVuSans-64" x="397.802734"/>
      <use xlink:href="#DejaVuSans-74" x="461.279297"/>
      <use xlink:href="#DejaVuSans-68" x="500.488281"/>
      <use xlink:href="#DejaVuSans-2c" x="563.867188"/>
      <use xlink:href="#DejaVuSans-20" x="595.654297"/>
      <use xlink:href="#DejaVuSans-7a" x="627.441406"/>
      <use xlink:href="#DejaVuSans-2f" x="679.931641"/>
      <use xlink:href="#DejaVuSans-68" x="713.623047"/>
      <use xlink:href="#DejaVuSans-20" x="777.001953"/>
      <use xlink:href="#DejaVuSans-3d" x="808.789062"/>
      <use xlink:href="#DejaVuSans-20" x="892.578125"/>
      <use xlink:href="#DejaVuSans-30" x="924.365234"/>
      <use xlink:href="#DejaVuSans-2e" x="987.988281"/>
      <use xlink:href="#DejaVuSans-33" x="1019.775391"/>
      <use xlink:href="#DejaVuSans-38" x="1083.398438"/>
     </g>
    </g>
    <g id="line2d_21">
     <path d="M 188.833381 239.436563 
L 198.833381 239.436563 
L 208.833381 239.436563 
" style="fill: none; stroke: #d62728; stroke-width: 1.5; stroke-linecap: square"/>
    </g>
    <g id="text_17">
     <!-- 7.6m width, z/h = 1.88 -->
     <g transform="translate(216.833381 242.936563) scale(0.1 -0.1)">
      <use xlink:href="#DejaVuSans-37"/>
      <use xlink:href="#DejaVuSans-2e" x="63.623047"/>
      <use xlink:href="#DejaVuSans-36" x="95.410156"/>
      <use xlink:href="#DejaVuSans-6d" x="159.033203"/>
      <use xlink:href="#DejaVuSans-20" x="256.445312"/>
      <use xlink:href="#DejaVuSans-77" x="288.232422"/>
      <use xlink:href="#DejaVuSans-69" x="370.019531"/>
      <use xlink:href="#DejaVuSans-64" x="397.802734"/>
      <use xlink:href="#DejaVuSans-74" x="461.279297"/>
      <use xlink:href="#DejaVuSans-68" x="500.488281"/>
      <use xlink:href="#DejaVuSans-2c" x="563.867188"/>
      <use xlink:href="#DejaVuSans-20" x="595.654297"/>
      <use xlink:href="#DejaVuSans-7a" x="627.441406"/>
      <use xlink:href="#DejaVuSans-2f" x="679.931641"/>
      <use xlink:href="#DejaVuSans-68" x="713.623047"/>
      <use xlink:href="#DejaVuSans-20" x="777.001953"/>
      <use xlink:href="#DejaVuSans-3d" x="808.789062"/>
      <use xlink:href="#DejaVuSans-20" x="892.578125"/>
      <use xlink:href="#DejaVuSans-31" x="924.365234"/>
      <use xlink:href="#DejaVuSans-2e" x="987.988281"/>
      <use xlink:href="#DejaVuSans-38" x="1019.775391"/>
      <use xlink:href="#DejaVuSans-38" x="1083.398438"/>
     </g>
    </g>
   </g>
  </g>
  <g id="axes_2">
   <g id="patch_8">
    <path d="M 473.236364 384.48 
L 777.6 384.48 
L 777.6 51.84 
L 473.236364 51.84 
z
" style="fill: #ffffff"/>
   </g>
   <g id="matplotlib.axis_3">
    <g id="xtick_7">
     <g id="line2d_22">
      <g>
       <use xlink:href="#m5cb3c64053" x="487.071074" y="384.48" style="stroke: #000000; stroke-width: 0.8"/>
      </g>
     </g>
     <g id="text_18">
      <!-- 0.0 -->
      <g transform="translate(479.119512 399.078438) scale(0.1 -0.1)">
       <use xlink:href="#DejaVuSans-30"/>
       <use xlink:href="#DejaVuSans-2e" x="63.623047"/>
       <use xlink:href="#DejaVuSans-30" x="95.410156"/>
      </g>
     </g>
    </g>
    <g id="xtick_8">
     <g id="line2d_23">
      <g>
       <use xlink:href="#m5cb3c64053" x="530.679304" y="384.48" style="stroke: #000000; stroke-width: 0.8"/>
      </g>
     </g>
     <g id="text_19">
      <!-- 0.2 -->
      <g transform="translate(522.727741 399.078438) scale(0.1 -0.1)">
       <use xlink:href="#DejaVuSans-30"/>
       <use xlink:href="#DejaVuSans-2e" x="63.623047"/>
       <use xlink:href="#DejaVuSans-32" x="95.410156"/>
      </g>
     </g>
    </g>
    <g id="xtick_9">
     <g id="line2d_24">
      <g>
       <use xlink:href="#m5cb3c64053" x="574.287533" y="384.48" style="stroke: #000000; stroke-width: 0.8"/>
      </g>
     </g>
     <g id="text_20">
      <!-- 0.4 -->
      <g transform="translate(566.33597 399.078438) scale(0.1 -0.1)">
       <use xlink:href="#DejaVuSans-30"/>
       <use xlink:href="#DejaVuSans-2e" x="63.623047"/>
       <use xlink:href="#DejaVuSans-34" x="95.410156"/>
      </g>
     </g>
    </g>
    <g id="xtick_10">
     <g id="line2d_25">
      <g>
       <use xlink:href="#m5cb3c64053" x="617.895762" y="384.48" style="stroke: #000000; stroke-width: 0.8"/>
      </g>
     </g>
     <g id="text_21">
      <!-- 0.6 -->
      <g transform="translate(609.9442 399.078438) scale(0.1 -0.1)">
       <use xlink:href="#DejaVuSans-30"/>
       <use xlink:href="#DejaVuSans-2e" x="63.623047"/>
       <use xlink:href="#DejaVuSans-36" x="95.410156"/>
      </g>
     </g>
    </g>
    <g id="xtick_11">
     <g id="line2d_26">
      <g>
       <use xlink:href="#m5cb3c64053" x="661.503992" y="384.48" style="stroke: #000000; stroke-width: 0.8"/>
      </g>
     </g>
     <g id="text_22">
      <!-- 0.8 -->
      <g transform="translate(653.552429 399.078438) scale(0.1 -0.1)">
       <use xlink:href="#DejaVuSans-30"/>
       <use xlink:href="#DejaVuSans-2e" x="63.623047"/>
       <use xlink:href="#DejaVuSans-38" x="95.410156"/>
      </g>
     </g>
    </g>
    <g id="xtick_12">
     <g id="line2d_27">
      <g>
       <use xlink:href="#m5cb3c64053" x="705.112221" y="384.48" style="stroke: #000000; stroke-width: 0.8"/>
      </g>
     </g>
     <g id="text_23">
      <!-- 1.0 -->
      <g transform="translate(697.160658 399.078438) scale(0.1 -0.1)">
       <use xlink:href="#DejaVuSans-31"/>
       <use xlink:href="#DejaVuSans-2e" x="63.623047"/>
       <use xlink:href="#DejaVuSans-30" x="95.410156"/>
      </g>
     </g>
    </g>
    <g id="xtick_13">
     <g id="line2d_28">
      <g>
       <use xlink:href="#m5cb3c64053" x="748.72045" y="384.48" style="stroke: #000000; stroke-width: 0.8"/>
      </g>
     </g>
     <g id="text_24">
      <!-- 1.2 -->
      <g transform="translate(740.768888 399.078438) scale(0.1 -0.1)">
       <use xlink:href="#DejaVuSans-31"/>
       <use xlink:href="#DejaVuSans-2e" x="63.623047"/>
       <use xlink:href="#DejaVuSans-32" x="95.410156"/>
      </g>
     </g>
    </g>
    <g id="text_25">
     <!-- normalized velocity -->
     <g transform="translate(576.503338 412.756563) scale(0.1 -0.1)">
      <use xlink:href="#DejaVuSans-6e"/>
      <use xlink:href="#DejaVuSans-6f" x="63.378906"/>
      <use xlink:href="#DejaVuSans-72" x="124.560547"/>
      <use xlink:href="#DejaVuSans-6d" x="163.923828"/>
      <use xlink:href="#DejaVuSans-61" x="261.335938"/>
      <use xlink:href="#DejaVuSans-6c" x="322.615234"/>
      <use xlink:href="#DejaVuSans-69" x="350.398438"/>
      <use xlink:href="#DejaVuSans-7a" x="378.181641"/>
      <use xlink:href="#DejaVuSans-65" x="430.671875"/>
      <use xlink:href="#DejaVuSans-64" x="492.195312"/>
      <use xlink:href="#DejaVuSans-20" x="555.671875"/>
      <use xlink:href="#DejaVuSans-76" x="587.458984"/>
      <use xlink:href="#DejaVuSans-65" x="646.638672"/>
      <use xlink:href="#DejaVuSans-6c" x="708.162109"/>
      <use xlink:href="#DejaVuSans-6f" x="735.945312"/>
      <use xlink:href="#DejaVuSans-63" x="797.126953"/>
      <use xlink:href="#DejaVuSans-69" x="852.107422"/>
      <use xlink:href="#DejaVuSans-74" x="879.890625"/>
      <use xlink:href="#DejaVuSans-79" x="919.099609"/>
     </g>
    </g>
   </g>
   <g id="matplotlib.axis_4">
    <g id="ytick_6">
     <g id="line2d_29">
      <g>
       <use xlink:href="#mc3b4e14c7c" x="473.236364" y="369.36" style="stroke: #000000; stroke-width: 0.8"/>
      </g>
     </g>
     <g id="text_26">
      <!-- 0.0 -->
      <g transform="translate(450.333239 373.159219) scale(0.1 -0.1)">
       <use xlink:href="#DejaVuSans-30"/>
       <use xlink:href="#DejaVuSans-2e" x="63.623047"/>
       <use xlink:href="#DejaVuSans-30" x="95.410156"/>
      </g>
     </g>
    </g>
    <g id="ytick_7">
     <g id="line2d_30">
      <g>
       <use xlink:href="#mc3b4e14c7c" x="473.236364" y="318.96" style="stroke: #000000; stroke-width: 0.8"/>
      </g>
     </g>
     <g id="text_27">
      <!-- 0.5 -->
      <g transform="translate(450.333239 322.759219) scale(0.1 -0.1)">
       <use xlink:href="#DejaVuSans-30"/>
       <use xlink:href="#DejaVuSans-2e" x="63.623047"/>
       <use xlink:href="#DejaVuSans-35" x="95.410156"/>
      </g>
     </g>
    </g>
    <g id="ytick_8">
     <g id="line2d_31">
      <g>
       <use xlink:href="#mc3b4e14c7c" x="473.236364" y="268.56" style="stroke: #000000; stroke-width: 0.8"/>
      </g>
     </g>
     <g id="text_28">
      <!-- 1.0 -->
      <g transform="translate(450.333239 272.359219) scale(0.1 -0.1)">
       <use xlink:href="#DejaVuSans-31"/>
       <use xlink:href="#DejaVuSans-2e" x="63.623047"/>
       <use xlink:href="#DejaVuSans-30" x="95.410156"/>
      </g>
     </g>
    </g>
    <g id="ytick_9">
     <g id="line2d_32">
      <g>
       <use xlink:href="#mc3b4e14c7c" x="473.236364" y="218.16" style="stroke: #000000; stroke-width: 0.8"/>
      </g>
     </g>
     <g id="text_29">
      <!-- 1.5 -->
      <g transform="translate(450.333239 221.959219) scale(0.1 -0.1)">
       <use xlink:href="#DejaVuSans-31"/>
       <use xlink:href="#DejaVuSans-2e" x="63.623047"/>
       <use xlink:href="#DejaVuSans-35" x="95.410156"/>
      </g>
     </g>
    </g>
    <g id="ytick_10">
     <g id="line2d_33">
      <g>
       <use xlink:href="#mc3b4e14c7c" x="473.236364" y="167.76" style="stroke: #000000; stroke-width: 0.8"/>
      </g>
     </g>
     <g id="text_30">
      <!-- 2.0 -->
      <g transform="translate(450.333239 171.559219) scale(0.1 -0.1)">
       <use xlink:href="#DejaVuSans-32"/>
       <use xlink:href="#DejaVuSans-2e" x="63.623047"/>
       <use xlink:href="#DejaVuSans-30" x="95.410156"/>
      </g>
     </g>
    </g>
    <g id="ytick_11">
     <g id="line2d_34">
      <g>
       <use xlink:href="#mc3b4e14c7c" x="473.236364" y="117.36" style="stroke: #000000; stroke-width: 0.8"/>
      </g>
     </g>
     <g id="text_31">
      <!-- 2.5 -->
      <g transform="translate(450.333239 121.159219) scale(0.1 -0.1)">
       <use xlink:href="#DejaVuSans-32"/>
       <use xlink:href="#DejaVuSans-2e" x="63.623047"/>
       <use xlink:href="#DejaVuSans-35" x="95.410156"/>
      </g>
     </g>
    </g>
    <g id="ytick_12">
     <g id="line2d_35">
      <g>
       <use xlink:href="#mc3b4e14c7c" x="473.236364" y="66.96" style="stroke: #000000; stroke-width: 0.8"/>
      </g>
     </g>
     <g id="text_32">
      <!-- 3.0 -->
      <g transform="translate(450.333239 70.759219) scale(0.1 -0.1)">
       <use xlink:href="#DejaVuSans-33"/>
       <use xlink:href="#DejaVuSans-2e" x="63.623047"/>
       <use xlink:href="#DejaVuSans-30" x="95.410156"/>
      </g>
     </g>
    </g>
    <g id="text_33">
     <!-- y position (m) -->
     <g transform="translate(444.253551 252.874062) rotate(-90) scale(0.1 -0.1)">
      <use xlink:href="#DejaVuSans-79"/>
      <use xlink:href="#DejaVuSans-20" x="59.179688"/>
      <use xlink:href="#DejaVuSans-70" x="90.966797"/>
      <use xlink:href="#DejaVuSans-6f" x="154.443359"/>
      <use xlink:href="#DejaVuSans-73" x="215.625"/>
      <use xlink:href="#DejaVuSans-69" x="267.724609"/>
      <use xlink:href="#DejaVuSans-74" x="295.507812"/>
      <use xlink:href="#DejaVuSans-69" x="334.716797"/>
      <use xlink:href="#DejaVuSans-6f" x="362.5"/>
      <use xlink:href="#DejaVuSans-6e" x="423.681641"/>
      <use xlink:href="#DejaVuSans-20" x="487.060547"/>
      <use xlink:href="#DejaVuSans-28" x="518.847656"/>
      <use xlink:href="#DejaVuSans-6d" x="557.861328"/>
      <use xlink:href="#DejaVuSans-29" x="655.273438"/>
     </g>
    </g>
   </g>
   <g id="line2d_36">
    <g clip-path="url(#p203025ce55)">
     <use xlink:href="#m1a8cb6c368" x="544.551081" y="358.576416" style="fill: #d62728; stroke: #d62728"/>
     <use xlink:href="#m1a8cb6c368" x="558.135045" y="332.322048" style="fill: #d62728; stroke: #d62728"/>
     <use xlink:href="#m1a8cb6c368" x="577.211465" y="307.94256" style="fill: #d62728; stroke: #d62728"/>
     <use xlink:href="#m1a8cb6c368" x="605.877334" y="281.218464" style="fill: #d62728; stroke: #d62728"/>
     <use xlink:href="#m1a8cb6c368" x="652.668964" y="252.62352" style="fill: #d62728; stroke: #d62728"/>
     <use xlink:href="#m1a8cb6c368" x="702.548057" y="220.26672" style="fill: #d62728; stroke: #d62728"/>
     <use xlink:href="#m1a8cb6c368" x="742.549886" y="179.48304" style="fill: #d62728; stroke: #d62728"/>
     <use xlink:href="#m1a8cb6c368" x="754.062458" y="131.18976" style="fill: #d62728; stroke: #d62728"/>
     <use xlink:href="#m1a8cb6c368" x="763.765289" y="73.0584" style="fill: #d62728; stroke: #d62728"/>
    </g>
   </g>
   <g id="line2d_37">
    <g clip-path="url(#p203025ce55)">
     <use xlink:href="#me65df030a6" x="634.488694" y="358.107696" style="fill: #1f77b4; stroke: #1f77b4; stroke-linejoin: miter"/>
     <use xlink:href="#me65df030a6" x="669.575875" y="337.010256" style="fill: #1f77b4; stroke: #1f77b4; stroke-linejoin: miter"/>
     <use xlink:href="#me65df030a6" x="690.771655" y="307.00512" style="fill: #1f77b4; stroke: #1f77b4; stroke-linejoin: miter"/>
     <use xlink:href="#me65df030a6" x="704.309829" y="283.094352" style="fill: #1f77b4; stroke: #1f77b4; stroke-linejoin: miter"/>
     <use xlink:href="#me65df030a6" x="714.37897" y="256.83696" style="fill: #1f77b4; stroke: #1f77b4; stroke-linejoin: miter"/>
     <use xlink:href="#me65df030a6" x="726.654686" y="220.74048" style="fill: #1f77b4; stroke: #1f77b4; stroke-linejoin: miter"/>
     <use xlink:href="#me65df030a6" x="735.550765" y="177.60816" style="fill: #1f77b4; stroke: #1f77b4; stroke-linejoin: miter"/>
     <use xlink:href="#me65df030a6" x="743.509267" y="131.66352" style="fill: #1f77b4; stroke: #1f77b4; stroke-linejoin: miter"/>
     <use xlink:href="#me65df030a6" x="749.679831" y="73.99584" style="fill: #1f77b4; stroke: #1f77b4; stroke-linejoin: miter"/>
    </g>
   </g>
   <g id="line2d_38">
    <path d="M 487.071074 369.36 
L 602.564468 369.108909 
L 623.558512 368.832708 
L 633.541479 368.528888 
L 640.350998 368.194685 
L 645.719709 367.827067 
L 650.208512 367.422674 
L 654.109553 366.977852 
L 657.590311 366.488552 
L 660.756648 365.950314 
L 663.678083 365.358257 
L 666.402017 364.706988 
L 668.963211 363.990594 
L 671.388524 363.202565 
L 673.698496 362.335727 
L 675.905767 361.382209 
L 678.026138 360.33336 
L 680.065929 359.17962 
L 682.03304 357.910464 
L 683.93695 356.514384 
L 685.782399 354.97878 
L 687.574129 353.28954 
L 689.316878 351.431376 
L 691.013807 349.387488 
L 692.671235 347.13906 
L 694.293904 344.665932 
L 695.881812 341.945424 
L 697.444441 338.95284 
L 698.981789 335.661048 
L 700.500177 332.04006 
L 700.500177 332.04006 
L 702.004345 328.057032 
L 703.495872 323.675592 
L 704.98266 318.856092 
L 706.467868 313.5546 
L 707.954656 307.722984 
L 709.447764 301.308156 
L 710.950352 294.251904 
L 712.46716 286.489968 
L 713.999768 277.95204 
L 715.551336 268.56 
L 717.131344 258.15912 
L 718.731892 246.71832 
L 720.349821 234.1326 
L 721.98671 220.2894 
L 723.634658 205.06104 
L 725.293667 188.3106 
L 726.954256 169.88436 
L 728.611684 149.616 
L 730.134812 129.05868 
L 731.51574 108.5022 
L 732.770266 87.94488 
L 733.909452 67.38756 
L 733.931572 66.96 
" clip-path="url(#p203025ce55)" style="fill: none; stroke-dasharray: 1.5,2.475; stroke-dashoffset: 0; stroke: #1f77b4; stroke-width: 1.5"/>
   </g>
   <g id="line2d_39">
    <path d="M 487.071074 369.36 
L 526.178492 369.108909 
L 535.664704 368.832708 
L 539.78426 368.528888 
L 542.600466 368.194685 
L 544.844078 367.827067 
L 546.757784 367.422674 
L 548.467511 366.977852 
L 550.044359 366.488552 
L 551.531305 365.950314 
L 552.955999 365.358257 
L 554.336452 364.706988 
L 555.683725 363.990594 
L 557.004612 363.202565 
L 558.302273 362.335727 
L 559.57734 361.382209 
L 560.82839 360.33336 
L 562.053055 359.17962 
L 563.248331 357.910464 
L 564.411059 356.514384 
L 565.538395 354.97878 
L 566.628917 353.28954 
L 567.681518 351.431376 
L 568.696832 349.387404 
L 569.676753 347.13906 
L 570.625548 344.665932 
L 571.549221 341.945424 
L 572.456935 338.95284 
L 573.361964 335.661048 
L 574.282477 332.04006 
L 575.24328 328.057032 
L 576.279291 323.675592 
L 577.441862 318.856092 
L 578.815995 313.5546 
L 580.566328 307.722984 
L 583.022293 301.308156 
L 586.780501 294.251904 
L 592.771576 286.489968 
L 602.25447 277.95204 
L 616.445789 268.56 
L 635.679862 258.15912 
L 658.852738 246.71832 
L 684.714314 234.1326 
L 708.969021 220.2894 
L 724.874965 205.06104 
L 732.018182 188.3106 
L 735.132379 169.88436 
L 737.018909 149.616 
L 738.402996 129.05868 
L 739.529542 108.5022 
L 740.480707 87.94488 
L 741.292831 67.38756 
L 741.307051 66.96 
" clip-path="url(#p203025ce55)" style="fill: none; stroke-dasharray: 1.5,2.475; stroke-dashoffset: 0; stroke: #d62728; stroke-width: 1.5"/>
   </g>
   <g id="line2d_40">
    <path d="M 487.071074 369.36 
L 602.565416 369.108909 
L 623.559618 368.832708 
L 633.542585 368.528888 
L 640.352262 368.194685 
L 645.721289 367.827067 
L 650.210092 367.422674 
L 654.111133 366.977852 
L 657.591891 366.488552 
L 660.758228 365.950314 
L 663.679663 365.358257 
L 666.403597 364.706988 
L 668.964791 363.990594 
L 671.390104 363.202565 
L 673.700076 362.335727 
L 675.907347 361.382209 
L 678.026138 360.33336 
L 680.065929 359.17962 
L 682.03462 357.910464 
L 683.93853 356.514384 
L 685.783979 354.97878 
L 687.574129 353.28954 
L 687.574129 353.28954 
L 689.316878 351.431376 
L 691.015387 349.387488 
L 691.015387 349.387488 
L 692.672815 347.13906 
L 694.293904 344.665932 
L 695.883392 341.945424 
L 697.444441 338.95284 
L 698.981789 335.661048 
L 700.500177 332.04006 
L 702.004345 328.057032 
L 703.495872 323.675592 
L 704.98266 318.856092 
L 706.467868 313.5546 
L 707.954656 307.722984 
L 709.447764 301.308156 
L 710.950352 294.251904 
L 712.46716 286.489968 
L 713.999768 277.95204 
L 715.551336 268.56 
L 717.131344 258.15912 
L 718.731892 246.71832 
L 720.349821 234.1326 
L 721.98671 220.2894 
L 723.634658 205.06104 
L 725.293667 188.3106 
L 726.954256 169.88436 
L 728.611684 149.616 
L 730.134812 129.05868 
L 731.51574 108.5022 
L 732.768686 87.94488 
L 733.909452 67.38756 
L 733.931572 66.96 
" clip-path="url(#p203025ce55)" style="fill: none; stroke: #1f77b4; stroke-width: 1.5; stroke-linecap: square"/>
   </g>
   <g id="line2d_41">
    <path d="M 487.071074 369.36 
L 529.261246 369.108909 
L 539.298249 368.832708 
L 543.709948 368.528888 
L 546.742142 368.194685 
L 549.169193 367.827067 
L 551.246272 367.422674 
L 553.105784 366.977852 
L 554.821831 366.488552 
L 556.439601 365.950314 
L 557.987219 365.358257 
L 559.482539 364.706988 
L 560.936305 363.990594 
L 562.354362 363.202565 
L 563.738766 362.335727 
L 565.089199 361.382209 
L 566.40345 360.33336 
L 567.678516 359.17962 
L 568.911555 357.910464 
L 570.099879 356.514384 
L 571.241909 354.97878 
L 572.336855 353.28954 
L 573.38519 351.431376 
L 574.389128 349.387404 
L 575.351827 347.13906 
L 576.278501 344.665932 
L 577.175946 341.945424 
L 578.054273 338.95284 
L 578.926753 335.661048 
L 579.811084 332.04006 
L 580.731439 328.057032 
L 581.720682 323.675592 
L 582.824476 318.856092 
L 584.113921 313.5546 
L 585.716997 307.722984 
L 587.896461 301.308156 
L 591.16613 294.251904 
L 596.399117 286.489968 
L 604.869068 277.95204 
L 617.937632 268.56 
L 636.302069 258.15912 
L 659.175059 246.71832 
L 685.161456 234.1326 
L 710.093987 220.2894 
L 727.123317 205.06104 
L 735.021778 188.3106 
L 738.395096 169.88436 
L 740.347986 149.616 
L 741.749453 129.05868 
L 742.879159 108.5022 
L 743.833484 87.94488 
L 744.648769 67.38756 
L 744.662989 66.96 
" clip-path="url(#p203025ce55)" style="fill: none; stroke: #d62728; stroke-width: 1.5; stroke-linecap: square"/>
   </g>
   <g id="patch_9">
    <path d="M 473.236364 384.48 
L 473.236364 51.84 
" style="fill: none; stroke: #000000; stroke-width: 0.8; stroke-linejoin: miter; stroke-linecap: square"/>
   </g>
   <g id="patch_10">
    <path d="M 777.6 384.48 
L 777.6 51.84 
" style="fill: none; stroke: #000000; stroke-width: 0.8; stroke-linejoin: miter; stroke-linecap: square"/>
   </g>
   <g id="patch_11">
    <path d="M 473.236364 384.48 
L 777.6 384.48 
" style="fill: none; stroke: #000000; stroke-width: 0.8; stroke-linejoin: miter; stroke-linecap: square"/>
   </g>
   <g id="patch_12">
    <path d="M 473.236364 51.84 
L 777.6 51.84 
" style="fill: none; stroke: #000000; stroke-width: 0.8; stroke-linejoin: miter; stroke-linecap: square"/>
   </g>
   <g id="legend_2">
    <g id="patch_13">
     <path d="M 480.236364 118.5525 
L 624.419176 118.5525 
Q 626.419176 118.5525 626.419176 116.5525 
L 626.419176 58.84 
Q 626.419176 56.84 624.419176 56.84 
L 480.236364 56.84 
Q 478.236364 56.84 478.236364 58.84 
L 478.236364 116.5525 
Q 478.236364 118.5525 480.236364 118.5525 
z
" style="fill: #ffffff; opacity: 0.8; stroke: #cccccc; stroke-linejoin: miter"/>
    </g>
    <g id="line2d_42">
     <path d="M 482.236364 64.938438 
L 492.236364 64.938438 
L 502.236364 64.938438 
" style="fill: none; stroke-dasharray: 1.5,2.475; stroke-dashoffset: 0; stroke: #1f77b4; stroke-width: 1.5"/>
    </g>
    <g id="text_34">
     <!-- 5m width, x/h = 4.2 -->
     <g transform="translate(510.236364 68.438438) scale(0.1 -0.1)">
      <use xlink:href="#DejaVuSans-35"/>
      <use xlink:href="#DejaVuSans-6d" x="63.623047"/>
      <use xlink:href="#DejaVuSans-20" x="161.035156"/>
      <use xlink:href="#DejaVuSans-77" x="192.822266"/>
      <use xlink:href="#DejaVuSans-69" x="274.609375"/>
      <use xlink:href="#DejaVuSans-64" x="302.392578"/>
      <use xlink:href="#DejaVuSans-74" x="365.869141"/>
      <use xlink:href="#DejaVuSans-68" x="405.078125"/>
      <use xlink:href="#DejaVuSans-2c" x="468.457031"/>
      <use xlink:href="#DejaVuSans-20" x="500.244141"/>
      <use xlink:href="#DejaVuSans-78" x="532.03125"/>
      <use xlink:href="#DejaVuSans-2f" x="591.210938"/>
      <use xlink:href="#DejaVuSans-68" x="624.902344"/>
      <use xlink:href="#DejaVuSans-20" x="688.28125"/>
      <use xlink:href="#DejaVuSans-3d" x="720.068359"/>
      <use xlink:href="#DejaVuSans-20" x="803.857422"/>
      <use xlink:href="#DejaVuSans-34" x="835.644531"/>
      <use xlink:href="#DejaVuSans-2e" x="899.267578"/>
      <use xlink:href="#DejaVuSans-32" x="931.054688"/>
     </g>
    </g>
    <g id="line2d_43">
     <path d="M 482.236364 79.616563 
L 492.236364 79.616563 
L 502.236364 79.616563 
" style="fill: none; stroke-dasharray: 1.5,2.475; stroke-dashoffset: 0; stroke: #d62728; stroke-width: 1.5"/>
    </g>
    <g id="text_35">
     <!-- 5m width, z/h = 75 -->
     <g transform="translate(510.236364 83.116563) scale(0.1 -0.1)">
      <use xlink:href="#DejaVuSans-35"/>
      <use xlink:href="#DejaVuSans-6d" x="63.623047"/>
      <use xlink:href="#DejaVuSans-20" x="161.035156"/>
      <use xlink:href="#DejaVuSans-77" x="192.822266"/>
      <use xlink:href="#DejaVuSans-69" x="274.609375"/>
      <use xlink:href="#DejaVuSans-64" x="302.392578"/>
      <use xlink:href="#DejaVuSans-74" x="365.869141"/>
      <use xlink:href="#DejaVuSans-68" x="405.078125"/>
      <use xlink:href="#DejaVuSans-2c" x="468.457031"/>
      <use xlink:href="#DejaVuSans-20" x="500.244141"/>
      <use xlink:href="#DejaVuSans-7a" x="532.03125"/>
      <use xlink:href="#DejaVuSans-2f" x="584.521484"/>
      <use xlink:href="#DejaVuSans-68" x="618.212891"/>
      <use xlink:href="#DejaVuSans-20" x="681.591797"/>
      <use xlink:href="#DejaVuSans-3d" x="713.378906"/>
      <use xlink:href="#DejaVuSans-20" x="797.167969"/>
      <use xlink:href="#DejaVuSans-37" x="828.955078"/>
      <use xlink:href="#DejaVuSans-35" x="892.578125"/>
     </g>
    </g>
    <g id="line2d_44">
     <path d="M 482.236364 94.294688 
L 492.236364 94.294688 
L 502.236364 94.294688 
" style="fill: none; stroke: #1f77b4; stroke-width: 1.5; stroke-linecap: square"/>
    </g>
    <g id="text_36">
     <!-- 7.6m width , x/h = 4.2 -->
     <g transform="translate(510.236364 97.794688) scale(0.1 -0.1)">
      <use xlink:href="#DejaVuSans-37"/>
      <use xlink:href="#DejaVuSans-2e" x="63.623047"/>
      <use xlink:href="#DejaVuSans-36" x="95.410156"/>
      <use xlink:href="#DejaVuSans-6d" x="159.033203"/>
      <use xlink:href="#DejaVuSans-20" x="256.445312"/>
      <use xlink:href="#DejaVuSans-77" x="288.232422"/>
      <use xlink:href="#DejaVuSans-69" x="370.019531"/>
      <use xlink:href="#DejaVuSans-64" x="397.802734"/>
      <use xlink:href="#DejaVuSans-74" x="461.279297"/>
      <use xlink:href="#DejaVuSans-68" x="500.488281"/>
      <use xlink:href="#DejaVuSans-20" x="563.867188"/>
      <use xlink:href="#DejaVuSans-2c" x="595.654297"/>
      <use xlink:href="#DejaVuSans-20" x="627.441406"/>
      <use xlink:href="#DejaVuSans-78" x="659.228516"/>
      <use xlink:href="#DejaVuSans-2f" x="718.408203"/>
      <use xlink:href="#DejaVuSans-68" x="752.099609"/>
      <use xlink:href="#DejaVuSans-20" x="815.478516"/>
      <use xlink:href="#DejaVuSans-3d" x="847.265625"/>
      <use xlink:href="#DejaVuSans-20" x="931.054688"/>
      <use xlink:href="#DejaVuSans-34" x="962.841797"/>
      <use xlink:href="#DejaVuSans-2e" x="1026.464844"/>
      <use xlink:href="#DejaVuSans-32" x="1058.251953"/>
     </g>
    </g>
    <g id="line2d_45">
     <path d="M 482.236364 108.972813 
L 492.236364 108.972813 
L 502.236364 108.972813 
" style="fill: none; stroke: #d62728; stroke-width: 1.5; stroke-linecap: square"/>
    </g>
    <g id="text_37">
     <!-- 7.6m width , x/h = 75 -->
     <g transform="translate(510.236364 112.472813) scale(0.1 -0.1)">
      <use xlink:href="#DejaVuSans-37"/>
      <use xlink:href="#DejaVuSans-2e" x="63.623047"/>
      <use xlink:href="#DejaVuSans-36" x="95.410156"/>
      <use xlink:href="#DejaVuSans-6d" x="159.033203"/>
      <use xlink:href="#DejaVuSans-20" x="256.445312"/>
      <use xlink:href="#DejaVuSans-77" x="288.232422"/>
      <use xlink:href="#DejaVuSans-69" x="370.019531"/>
      <use xlink:href="#DejaVuSans-64" x="397.802734"/>
      <use xlink:href="#DejaVuSans-74" x="461.279297"/>
      <use xlink:href="#DejaVuSans-68" x="500.488281"/>
      <use xlink:href="#DejaVuSans-20" x="563.867188"/>
      <use xlink:href="#DejaVuSans-2c" x="595.654297"/>
      <use xlink:href="#DejaVuSans-20" x="627.441406"/>
      <use xlink:href="#DejaVuSans-78" x="659.228516"/>
      <use xlink:href="#DejaVuSans-2f" x="718.408203"/>
      <use xlink:href="#DejaVuSans-68" x="752.099609"/>
      <use xlink:href="#DejaVuSans-20" x="815.478516"/>
      <use xlink:href="#DejaVuSans-3d" x="847.265625"/>
      <use xlink:href="#DejaVuSans-20" x="931.054688"/>
      <use xlink:href="#DejaVuSans-37" x="962.841797"/>
      <use xlink:href="#DejaVuSans-35" x="1026.464844"/>
     </g>
    </g>
   </g>
  </g>
  <g id="text_38">
   <!-- Comparison with velocity profiles from Liu et al. (2021), Channel height = 10m, Log inlets with u* = 0.5m/s, -->
   <g transform="translate(107.3775 17.758125) scale(0.12 -0.12)">
    <defs>
     <path id="DejaVuSans-43" d="M 4122 4306 
L 4122 3641 
Q 3803 3938 3442 4084 
Q 3081 4231 2675 4231 
Q 1875 4231 1450 3742 
Q 1025 3253 1025 2328 
Q 1025 1406 1450 917 
Q 1875 428 2675 428 
Q 3081 428 3442 575 
Q 3803 722 4122 1019 
L 4122 359 
Q 3791 134 3420 21 
Q 3050 -91 2638 -91 
Q 1578 -91 968 557 
Q 359 1206 359 2328 
Q 359 3453 968 4101 
Q 1578 4750 2638 4750 
Q 3056 4750 3426 4639 
Q 3797 4528 4122 4306 
z
" transform="scale(0.015625)"/>
     <path id="DejaVuSans-66" d="M 2375 4863 
L 2375 4384 
L 1825 4384 
Q 1516 4384 1395 4259 
Q 1275 4134 1275 3809 
L 1275 3500 
L 2222 3500 
L 2222 3053 
L 1275 3053 
L 1275 0 
L 697 0 
L 697 3053 
L 147 3053 
L 147 3500 
L 697 3500 
L 697 3744 
Q 697 4328 969 4595 
Q 1241 4863 1831 4863 
L 2375 4863 
z
" transform="scale(0.015625)"/>
     <path id="DejaVuSans-4c" d="M 628 4666 
L 1259 4666 
L 1259 531 
L 3531 531 
L 3531 0 
L 628 0 
L 628 4666 
z
" transform="scale(0.015625)"/>
     <path id="DejaVuSans-75" d="M 544 1381 
L 544 3500 
L 1119 3500 
L 1119 1403 
Q 1119 906 1312 657 
Q 1506 409 1894 409 
Q 2359 409 2629 706 
Q 2900 1003 2900 1516 
L 2900 3500 
L 3475 3500 
L 3475 0 
L 2900 0 
L 2900 538 
Q 2691 219 2414 64 
Q 2138 -91 1772 -91 
Q 1169 -91 856 284 
Q 544 659 544 1381 
z
M 1991 3584 
L 1991 3584 
z
" transform="scale(0.015625)"/>
     <path id="DejaVuSans-67" d="M 2906 1791 
Q 2906 2416 2648 2759 
Q 2391 3103 1925 3103 
Q 1463 3103 1205 2759 
Q 947 2416 947 1791 
Q 947 1169 1205 825 
Q 1463 481 1925 481 
Q 2391 481 2648 825 
Q 2906 1169 2906 1791 
z
M 3481 434 
Q 3481 -459 3084 -895 
Q 2688 -1331 1869 -1331 
Q 1566 -1331 1297 -1286 
Q 1028 -1241 775 -1147 
L 775 -588 
Q 1028 -725 1275 -790 
Q 1522 -856 1778 -856 
Q 2344 -856 2625 -561 
Q 2906 -266 2906 331 
L 2906 616 
Q 2728 306 2450 153 
Q 2172 0 1784 0 
Q 1141 0 747 490 
Q 353 981 353 1791 
Q 353 2603 747 3093 
Q 1141 3584 1784 3584 
Q 2172 3584 2450 3431 
Q 2728 3278 2906 2969 
L 2906 3500 
L 3481 3500 
L 3481 434 
z
" transform="scale(0.015625)"/>
     <path id="DejaVuSans-2a" d="M 3009 3897 
L 1888 3291 
L 3009 2681 
L 2828 2375 
L 1778 3009 
L 1778 1831 
L 1422 1831 
L 1422 3009 
L 372 2375 
L 191 2681 
L 1313 3291 
L 191 3897 
L 372 4206 
L 1422 3572 
L 1422 4750 
L 1778 4750 
L 1778 3572 
L 2828 4206 
L 3009 3897 
z
" transform="scale(0.015625)"/>
    </defs>
    <use xlink:href="#DejaVuSans-43"/>
    <use xlink:href="#DejaVuSans-6f" x="69.824219"/>
    <use xlink:href="#DejaVuSans-6d" x="131.005859"/>
    <use xlink:href="#DejaVuSans-70" x="228.417969"/>
    <use xlink:href="#DejaVuSans-61" x="291.894531"/>
    <use xlink:href="#DejaVuSans-72" x="353.173828"/>
    <use xlink:href="#DejaVuSans-69" x="394.287109"/>
    <use xlink:href="#DejaVuSans-73" x="422.070312"/>
    <use xlink:href="#DejaVuSans-6f" x="474.169922"/>
    <use xlink:href="#DejaVuSans-6e" x="535.351562"/>
    <use xlink:href="#DejaVuSans-20" x="598.730469"/>
    <use xlink:href="#DejaVuSans-77" x="630.517578"/>
    <use xlink:href="#DejaVuSans-69" x="712.304688"/>
    <use xlink:href="#DejaVuSans-74" x="740.087891"/>
    <use xlink:href="#DejaVuSans-68" x="779.296875"/>
    <use xlink:href="#DejaVuSans-20" x="842.675781"/>
    <use xlink:href="#DejaVuSans-76" x="874.462891"/>
    <use xlink:href="#DejaVuSans-65" x="933.642578"/>
    <use xlink:href="#DejaVuSans-6c" x="995.166016"/>
    <use xlink:href="#DejaVuSans-6f" x="1022.949219"/>
    <use xlink:href="#DejaVuSans-63" x="1084.130859"/>
    <use xlink:href="#DejaVuSans-69" x="1139.111328"/>
    <use xlink:href="#DejaVuSans-74" x="1166.894531"/>
    <use xlink:href="#DejaVuSans-79" x="1206.103516"/>
    <use xlink:href="#DejaVuSans-20" x="1265.283203"/>
    <use xlink:href="#DejaVuSans-70" x="1297.070312"/>
    <use xlink:href="#DejaVuSans-72" x="1360.546875"/>
    <use xlink:href="#DejaVuSans-6f" x="1399.410156"/>
    <use xlink:href="#DejaVuSans-66" x="1460.591797"/>
    <use xlink:href="#DejaVuSans-69" x="1495.796875"/>
    <use xlink:href="#DejaVuSans-6c" x="1523.580078"/>
    <use xlink:href="#DejaVuSans-65" x="1551.363281"/>
    <use xlink:href="#DejaVuSans-73" x="1612.886719"/>
    <use xlink:href="#DejaVuSans-20" x="1664.986328"/>
    <use xlink:href="#DejaVuSans-66" x="1696.773438"/>
    <use xlink:href="#DejaVuSans-72" x="1731.978516"/>
    <use xlink:href="#DejaVuSans-6f" x="1770.841797"/>
    <use xlink:href="#DejaVuSans-6d" x="1832.023438"/>
    <use xlink:href="#DejaVuSans-20" x="1929.435547"/>
    <use xlink:href="#DejaVuSans-4c" x="1961.222656"/>
    <use xlink:href="#DejaVuSans-69" x="2016.935547"/>
    <use xlink:href="#DejaVuSans-75" x="2044.71875"/>
    <use xlink:href="#DejaVuSans-20" x="2108.097656"/>
    <use xlink:href="#DejaVuSans-65" x="2139.884766"/>
    <use xlink:href="#DejaVuSans-74" x="2201.408203"/>
    <use xlink:href="#DejaVuSans-20" x="2240.617188"/>
    <use xlink:href="#DejaVuSans-61" x="2272.404297"/>
    <use xlink:href="#DejaVuSans-6c" x="2333.683594"/>
    <use xlink:href="#DejaVuSans-2e" x="2361.466797"/>
    <use xlink:href="#DejaVuSans-20" x="2393.253906"/>
    <use xlink:href="#DejaVuSans-28" x="2425.041016"/>
    <use xlink:href="#DejaVuSans-32" x="2464.054688"/>
    <use xlink:href="#DejaVuSans-30" x="2527.677734"/>
    <use xlink:href="#DejaVuSans-32" x="2591.300781"/>
    <use xlink:href="#DejaVuSans-31" x="2654.923828"/>
    <use xlink:href="#DejaVuSans-29" x="2718.546875"/>
    <use xlink:href="#DejaVuSans-2c" x="2757.560547"/>
    <use xlink:href="#DejaVuSans-20" x="2789.347656"/>
    <use xlink:href="#DejaVuSans-43" x="2821.134766"/>
    <use xlink:href="#DejaVuSans-68" x="2890.958984"/>
    <use xlink:href="#DejaVuSans-61" x="2954.337891"/>
    <use xlink:href="#DejaVuSans-6e" x="3015.617188"/>
    <use xlink:href="#DejaVuSans-6e" x="3078.996094"/>
    <use xlink:href="#DejaVuSans-65" x="3142.375"/>
    <use xlink:href="#DejaVuSans-6c" x="3203.898438"/>
    <use xlink:href="#DejaVuSans-20" x="3231.681641"/>
    <use xlink:href="#DejaVuSans-68" x="3263.46875"/>
    <use xlink:href="#DejaVuSans-65" x="3326.847656"/>
    <use xlink:href="#DejaVuSans-69" x="3388.371094"/>
    <use xlink:href="#DejaVuSans-67" x="3416.154297"/>
    <use xlink:href="#DejaVuSans-68" x="3479.630859"/>
    <use xlink:href="#DejaVuSans-74" x="3543.009766"/>
    <use xlink:href="#DejaVuSans-20" x="3582.21875"/>
    <use xlink:href="#DejaVuSans-3d" x="3614.005859"/>
    <use xlink:href="#DejaVuSans-20" x="3697.794922"/>
    <use xlink:href="#DejaVuSans-31" x="3729.582031"/>
    <use xlink:href="#DejaVuSans-30" x="3793.205078"/>
    <use xlink:href="#DejaVuSans-6d" x="3856.828125"/>
    <use xlink:href="#DejaVuSans-2c" x="3954.240234"/>
    <use xlink:href="#DejaVuSans-20" x="3986.027344"/>
    <use xlink:href="#DejaVuSans-4c" x="4017.814453"/>
    <use xlink:href="#DejaVuSans-6f" x="4071.777344"/>
    <use xlink:href="#DejaVuSans-67" x="4132.958984"/>
    <use xlink:href="#DejaVuSans-20" x="4196.435547"/>
    <use xlink:href="#DejaVuSans-69" x="4228.222656"/>
    <use xlink:href="#DejaVuSans-6e" x="4256.005859"/>
    <use xlink:href="#DejaVuSans-6c" x="4319.384766"/>
    <use xlink:href="#DejaVuSans-65" x="4347.167969"/>
    <use xlink:href="#DejaVuSans-74" x="4408.691406"/>
    <use xlink:href="#DejaVuSans-73" x="4447.900391"/>
    <use xlink:href="#DejaVuSans-20" x="4500"/>
    <use xlink:href="#DejaVuSans-77" x="4531.787109"/>
    <use xlink:href="#DejaVuSans-69" x="4613.574219"/>
    <use xlink:href="#DejaVuSans-74" x="4641.357422"/>
    <use xlink:href="#DejaVuSans-68" x="4680.566406"/>
    <use xlink:href="#DejaVuSans-20" x="4743.945312"/>
    <use xlink:href="#DejaVuSans-75" x="4775.732422"/>
    <use xlink:href="#DejaVuSans-2a" x="4839.111328"/>
    <use xlink:href="#DejaVuSans-20" x="4889.111328"/>
    <use xlink:href="#DejaVuSans-3d" x="4920.898438"/>
    <use xlink:href="#DejaVuSans-20" x="5004.6875"/>
    <use xlink:href="#DejaVuSans-30" x="5036.474609"/>
    <use xlink:href="#DejaVuSans-2e" x="5100.097656"/>
    <use xlink:href="#DejaVuSans-35" x="5131.884766"/>
    <use xlink:href="#DejaVuSans-6d" x="5195.507812"/>
    <use xlink:href="#DejaVuSans-2f" x="5292.919922"/>
    <use xlink:href="#DejaVuSans-73" x="5326.611328"/>
    <use xlink:href="#DejaVuSans-2c" x="5378.710938"/>
   </g>
   <!--  height fence = 1.2m, width variation, y+=45 -->
   <g transform="translate(294.390938 31.1955) scale(0.12 -0.12)">
    <defs>
     <path id="DejaVuSans-2b" d="M 2944 4013 
L 2944 2272 
L 4684 2272 
L 4684 1741 
L 2944 1741 
L 2944 0 
L 2419 0 
L 2419 1741 
L 678 1741 
L 678 2272 
L 2419 2272 
L 2419 4013 
L 2944 4013 
z
" transform="scale(0.015625)"/>
    </defs>
    <use xlink:href="#DejaVuSans-20"/>
    <use xlink:href="#DejaVuSans-68" x="31.787109"/>
    <use xlink:href="#DejaVuSans-65" x="95.166016"/>
    <use xlink:href="#DejaVuSans-69" x="156.689453"/>
    <use xlink:href="#DejaVuSans-67" x="184.472656"/>
    <use xlink:href="#DejaVuSans-68" x="247.949219"/>
    <use xlink:href="#DejaVuSans-74" x="311.328125"/>
    <use xlink:href="#DejaVuSans-20" x="350.537109"/>
    <use xlink:href="#DejaVuSans-66" x="382.324219"/>
    <use xlink:href="#DejaVuSans-65" x="417.529297"/>
    <use xlink:href="#DejaVuSans-6e" x="479.052734"/>
    <use xlink:href="#DejaVuSans-63" x="542.431641"/>
    <use xlink:href="#DejaVuSans-65" x="597.412109"/>
    <use xlink:href="#DejaVuSans-20" x="658.935547"/>
    <use xlink:href="#DejaVuSans-3d" x="690.722656"/>
    <use xlink:href="#DejaVuSans-20" x="774.511719"/>
    <use xlink:href="#DejaVuSans-31" x="806.298828"/>
    <use xlink:href="#DejaVuSans-2e" x="869.921875"/>
    <use xlink:href="#DejaVuSans-32" x="901.708984"/>
    <use xlink:href="#DejaVuSans-6d" x="965.332031"/>
    <use xlink:href="#DejaVuSans-2c" x="1062.744141"/>
    <use xlink:href="#DejaVuSans-20" x="1094.53125"/>
    <use xlink:href="#DejaVuSans-77" x="1126.318359"/>
    <use xlink:href="#DejaVuSans-69" x="1208.105469"/>
    <use xlink:href="#DejaVuSans-64" x="1235.888672"/>
    <use xlink:href="#DejaVuSans-74" x="1299.365234"/>
    <use xlink:href="#DejaVuSans-68" x="1338.574219"/>
    <use xlink:href="#DejaVuSans-20" x="1401.953125"/>
    <use xlink:href="#DejaVuSans-76" x="1433.740234"/>
    <use xlink:href="#DejaVuSans-61" x="1492.919922"/>
    <use xlink:href="#DejaVuSans-72" x="1554.199219"/>
    <use xlink:href="#DejaVuSans-69" x="1595.3125"/>
    <use xlink:href="#DejaVuSans-61" x="1623.095703"/>
    <use xlink:href="#DejaVuSans-74" x="1684.375"/>
    <use xlink:href="#DejaVuSans-69" x="1723.583984"/>
    <use xlink:href="#DejaVuSans-6f" x="1751.367188"/>
    <use xlink:href="#DejaVuSans-6e" x="1812.548828"/>
    <use xlink:href="#DejaVuSans-2c" x="1875.927734"/>
    <use xlink:href="#DejaVuSans-20" x="1907.714844"/>
    <use xlink:href="#DejaVuSans-79" x="1939.501953"/>
    <use xlink:href="#DejaVuSans-2b" x="1998.681641"/>
    <use xlink:href="#DejaVuSans-3d" x="2082.470703"/>
    <use xlink:href="#DejaVuSans-34" x="2166.259766"/>
    <use xlink:href="#DejaVuSans-35" x="2229.882812"/>
   </g>
  </g>
 </g>
 <defs>
  <clipPath id="pdfcc0179c0">
   <rect x="108" y="51.84" width="304.363636" height="332.64"/>
  </clipPath>
  <clipPath id="p203025ce55">
   <rect x="473.236364" y="51.84" width="304.363636" height="332.64"/>
  </clipPath>
 </defs>
</svg>
